<svg width="260" height="205" viewBox="0 0 260 205" fill="none" xmlns="http://www.w3.org/2000/svg">
<g clip-path="url(#clip0_1233_613)">
<path d="M259.535 186.927H238.073V187.082H259.535V186.927Z" fill="#EBEBEB"/>
<path d="M182.631 188.623H176.999V188.778H182.631V188.623Z" fill="#EBEBEB"/>
<path d="M237.425 181.139H224.99V181.294H237.425V181.139Z" fill="#EBEBEB"/>
<path d="M29.9813 182.187H1.99414V182.342H29.9813V182.187Z" fill="#EBEBEB"/>
<path d="M39.8567 182.187H35.7549V182.342H39.8567V182.187Z" fill="#EBEBEB"/>
<path d="M113.897 184.819H53.1925V184.974H113.897V184.819Z" fill="#EBEBEB"/>
<path d="M122.483 149.077H-2.64562C-3.62695 149.077 -4.56808 148.702 -5.26197 148.034C-5.95587 147.366 -6.3457 146.46 -6.3457 145.516V-23.765C-6.33716 -24.704 -5.94356 -25.6018 -5.25059 -26.2629C-4.55761 -26.9241 -3.62136 -27.295 -2.64562 -27.2949H122.483C122.969 -27.2949 123.45 -27.2028 123.899 -27.0238C124.348 -26.8449 124.756 -26.5826 125.1 -26.2519C125.443 -25.9212 125.716 -25.5286 125.902 -25.0966C126.088 -24.6645 126.183 -24.2015 126.183 -23.7338V145.516C126.183 145.983 126.088 146.446 125.902 146.878C125.716 147.31 125.443 147.703 125.1 148.034C124.756 148.364 124.348 148.627 123.899 148.806C123.45 148.985 122.969 149.077 122.483 149.077ZM-2.64562 -27.1702C-3.58345 -27.1685 -4.48238 -26.8093 -5.14553 -26.171C-5.80868 -25.5328 -6.18199 -24.6676 -6.1837 -23.765V145.516C-6.18199 146.418 -5.80868 147.283 -5.14553 147.922C-4.48238 148.56 -3.58345 148.919 -2.64562 148.921H122.483C123.421 148.919 124.32 148.56 124.983 147.922C125.646 147.283 126.02 146.418 126.021 145.516V-23.765C126.02 -24.6676 125.646 -25.5328 124.983 -26.171C124.32 -26.8093 123.421 -27.1685 122.483 -27.1702H-2.64562Z" fill="#EBEBEB"/>
<path d="M262.646 149.077H137.517C136.536 149.077 135.594 148.702 134.9 148.034C134.207 147.366 133.817 146.46 133.817 145.516V-23.765C133.825 -24.704 134.219 -25.6018 134.912 -26.2629C135.605 -26.9241 136.541 -27.295 137.517 -27.2949H262.646C263.627 -27.2949 264.568 -26.9197 265.262 -26.2519C265.956 -25.5841 266.346 -24.6783 266.346 -23.7338V145.516C266.346 146.46 265.956 147.366 265.262 148.034C264.568 148.702 263.627 149.077 262.646 149.077ZM137.517 -27.1702C136.579 -27.1685 135.68 -26.8093 135.017 -26.171C134.354 -25.5328 133.98 -24.6676 133.979 -23.765V145.516C133.98 146.418 134.354 147.283 135.017 147.922C135.68 148.56 136.579 148.919 137.517 148.921H262.646C263.583 148.919 264.482 148.56 265.146 147.922C265.809 147.283 266.182 146.418 266.184 145.516V-23.765C266.182 -24.6676 265.809 -25.5328 265.146 -26.171C264.482 -26.8093 263.583 -27.1685 262.646 -27.1702H137.517Z" fill="#EBEBEB"/>
<path d="M292 176.892H-32V177.047H292V176.892Z" fill="#EBEBEB"/>
<path d="M45.3259 134.701C44.7816 128.677 38.3923 126.425 30.8172 127.061C23.2421 127.698 17.3647 130.984 17.8961 137.009L45.3259 134.701Z" fill="#F0F0F0"/>
<path d="M30.5708 124.311C34.083 124.012 35.204 121.155 34.8995 117.775C34.5949 114.395 32.9555 111.769 29.4563 112.062C25.9571 112.355 24.8231 115.218 25.1276 118.598C25.4322 121.978 27.0587 124.604 30.5708 124.311Z" fill="#F0F0F0"/>
<path d="M188.385 6.38271C188.446 7.05134 188.3 7.72249 187.965 8.31125C187.63 8.9 187.121 9.3799 186.503 9.69021C185.885 10.0005 185.184 10.1273 184.491 10.0545C183.798 9.98171 183.142 9.71261 182.608 9.28127C182.074 8.84992 181.684 8.27571 181.489 7.63129C181.294 6.98688 181.302 6.30121 181.512 5.66107C181.721 5.02093 182.124 4.45508 182.668 4.03512C183.212 3.61516 183.873 3.35996 184.568 3.30182C185.499 3.22396 186.423 3.50468 187.139 4.08232C187.854 4.65996 188.302 5.48732 188.385 6.38271Z" fill="#F5F5F5"/>
<path d="M207.87 4.72373C207.93 5.39098 207.784 6.06043 207.448 6.64742C207.113 7.2344 206.605 7.71257 205.987 8.02145C205.37 8.33033 204.671 8.45605 203.979 8.38272C203.288 8.30939 202.634 8.0403 202.101 7.60947C201.569 7.17864 201.18 6.60543 200.986 5.96231C200.792 5.31919 200.8 4.63506 201.01 3.99641C201.219 3.35776 201.621 2.79328 202.164 2.37435C202.707 1.95542 203.367 1.70086 204.06 1.64284C204.989 1.56672 205.912 1.84823 206.626 2.4257C207.341 3.00316 207.788 3.82951 207.87 4.72373Z" fill="#F5F5F5"/>
<path d="M227.362 3.08364C227.423 3.75227 227.277 4.42342 226.943 5.01218C226.608 5.60093 226.099 6.08083 225.48 6.39114C224.862 6.70145 224.162 6.82823 223.468 6.75543C222.775 6.68264 222.12 6.41354 221.585 5.98219C221.051 5.55085 220.661 4.97664 220.466 4.33222C220.271 3.6878 220.279 3.00214 220.489 2.362C220.699 1.72186 221.101 1.15601 221.645 0.736049C222.189 0.316087 222.85 0.0608876 223.545 0.00274903C224.476 -0.0751078 225.4 0.205607 226.116 0.78325C226.831 1.36089 227.28 2.18824 227.362 3.08364Z" fill="#F5F5F5"/>
<path d="M190.121 25.4794C190.183 26.148 190.037 26.8192 189.702 27.4079C189.367 27.9967 188.858 28.4766 188.24 28.7869C187.621 29.0972 186.921 29.224 186.228 29.1512C185.534 29.0784 184.879 28.8093 184.345 28.378C183.81 27.9466 183.421 27.3724 183.226 26.728C183.031 26.0836 183.038 25.3979 183.248 24.7578C183.458 24.1176 183.861 23.5518 184.405 23.1318C184.949 22.7118 185.61 22.4566 186.305 22.3985C187.235 22.3206 188.16 22.6014 188.875 23.179C189.591 23.7566 190.039 24.584 190.121 25.4794Z" fill="#F5F5F5"/>
<path d="M209.607 23.8453C209.667 24.5126 209.52 25.182 209.185 25.769C208.85 26.356 208.342 26.8342 207.724 27.1431C207.107 27.4519 206.408 27.5777 205.716 27.5043C205.024 27.431 204.371 27.1619 203.838 26.7311C203.305 26.3002 202.917 25.727 202.723 25.0839C202.528 24.4408 202.537 23.7567 202.746 23.118C202.956 22.4794 203.358 21.9149 203.901 21.4959C204.443 21.077 205.103 20.8225 205.797 20.7644C206.257 20.7259 206.721 20.775 207.161 20.909C207.602 21.043 208.011 21.2592 208.365 21.5453C208.719 21.8314 209.01 22.1818 209.224 22.5764C209.437 22.9711 209.567 23.4022 209.607 23.8453Z" fill="#F5F5F5"/>
<path d="M229.099 22.1989C229.16 22.8675 229.014 23.5387 228.679 24.1274C228.344 24.7162 227.835 25.1961 227.217 25.5064C226.598 25.8167 225.898 25.9435 225.205 25.8707C224.512 25.7979 223.856 25.5288 223.322 25.0974C222.788 24.6661 222.398 24.0919 222.203 23.4475C222.008 22.803 222.016 22.1174 222.225 21.4772C222.435 20.8371 222.838 20.2712 223.382 19.8513C223.926 19.4313 224.587 19.1761 225.282 19.118C226.212 19.0401 227.137 19.3208 227.853 19.8985C228.568 20.4761 229.016 21.3035 229.099 22.1989Z" fill="#F5F5F5"/>
<path d="M191.858 44.6009C191.918 45.2681 191.772 45.9376 191.436 46.5245C191.101 47.1115 190.593 47.5897 189.975 47.8986C189.358 48.2075 188.659 48.3332 187.967 48.2598C187.276 48.1865 186.622 47.9174 186.089 47.4866C185.556 47.0558 185.168 46.4826 184.974 45.8394C184.78 45.1963 184.788 44.5122 184.997 43.8735C185.207 43.2349 185.609 42.6704 186.152 42.2515C186.695 41.8325 187.355 41.578 188.048 41.52C188.508 41.4806 188.972 41.5291 189.413 41.6628C189.854 41.7965 190.264 42.0126 190.618 42.2989C190.972 42.5851 191.264 42.9358 191.476 43.3308C191.689 43.7259 191.819 44.1575 191.858 44.6009Z" fill="#F5F5F5"/>
<path d="M211.35 42.9544C211.411 43.623 211.265 44.2942 210.93 44.8829C210.595 45.4717 210.087 45.9516 209.468 46.2619C208.85 46.5722 208.149 46.699 207.456 46.6262C206.763 46.5534 206.108 46.2843 205.573 45.8529C205.039 45.4216 204.649 44.8474 204.454 44.2029C204.259 43.5585 204.267 42.8729 204.477 42.2327C204.687 41.5926 205.089 41.0267 205.633 40.6068C206.177 40.1868 206.838 39.9316 207.533 39.8735C208.464 39.7956 209.388 40.0763 210.104 40.654C210.819 41.2316 211.268 42.059 211.35 42.9544Z" fill="#F5F5F5"/>
<path d="M230.835 41.308C230.897 41.9766 230.751 42.6478 230.416 43.2365C230.081 43.8253 229.572 44.3052 228.954 44.6155C228.335 44.9258 227.635 45.0526 226.942 44.9798C226.248 44.907 225.593 44.6379 225.059 44.2066C224.524 43.7752 224.135 43.201 223.94 42.5566C223.745 41.9122 223.752 41.2265 223.962 40.5864C224.172 39.9462 224.574 39.3804 225.118 38.9604C225.663 38.5405 226.324 38.2853 227.019 38.2271C227.949 38.1493 228.874 38.43 229.589 39.0076C230.305 39.5853 230.753 40.4126 230.835 41.308Z" fill="#F5F5F5"/>
<path d="M226.623 42.4179L186.59 45.7857L222.087 4.27477L185.728 7.33695C185.626 7.34635 185.524 7.33612 185.427 7.30685C185.329 7.27759 185.239 7.22988 185.161 7.16654C185.083 7.1032 185.019 7.0255 184.973 6.93802C184.927 6.85055 184.899 6.75505 184.892 6.65716C184.874 6.46117 184.938 6.26632 185.069 6.11546C185.2 5.9646 185.388 5.87006 185.592 5.85264L225.632 2.48486L190.128 43.9958L226.5 40.9336C226.705 40.918 226.908 40.9805 227.066 41.1076C227.223 41.2348 227.323 41.4164 227.343 41.6134C227.35 41.7118 227.338 41.8106 227.306 41.9044C227.274 41.9981 227.224 42.0849 227.157 42.1596C227.09 42.2344 227.008 42.2957 226.917 42.34C226.825 42.3844 226.725 42.4108 226.623 42.4179Z" fill="#E6E6E6"/>
<path d="M227.239 116.528C227.177 116.346 227.061 116.186 226.906 116.067C226.75 115.949 226.562 115.877 226.364 115.86C224.623 115.783 222.975 115.082 221.744 113.896C220.143 112.343 219.204 109.992 219.048 107.198C219.033 106.946 218.919 106.709 218.729 106.535C218.539 106.361 218.287 106.263 218.024 106.262C217.883 106.263 217.742 106.291 217.612 106.345C217.482 106.4 217.365 106.479 217.267 106.578C217.17 106.677 217.094 106.794 217.045 106.922C216.996 107.05 216.974 107.186 216.981 107.322C217.162 110.603 218.316 113.409 220.279 115.299C221.817 116.781 223.857 117.682 226.027 117.837H226.176C226.347 117.85 226.517 117.822 226.674 117.755C226.83 117.689 226.967 117.586 227.072 117.457C227.177 117.327 227.248 117.174 227.277 117.012C227.306 116.85 227.293 116.684 227.239 116.528Z" fill="#F0F0F0"/>
<path d="M225.165 128.496C216.579 127.772 210.384 122.141 208.427 113.347C208.396 113.215 208.393 113.078 208.418 112.945C208.444 112.812 208.497 112.685 208.574 112.572C208.652 112.459 208.752 112.362 208.869 112.287C208.987 112.213 209.119 112.162 209.257 112.137C209.519 112.092 209.789 112.146 210.011 112.288C210.233 112.43 210.39 112.648 210.449 112.898C212.205 120.8 217.713 125.864 225.353 126.506C233.725 127.211 242.713 121.91 244.327 108.551C244.355 108.291 244.488 108.051 244.697 107.884C244.907 107.717 245.177 107.637 245.448 107.659C245.585 107.67 245.719 107.707 245.841 107.769C245.963 107.83 246.071 107.915 246.158 108.017C246.246 108.119 246.311 108.238 246.351 108.365C246.39 108.492 246.403 108.625 246.387 108.757C244.839 121.355 236.233 129.425 225.165 128.496Z" fill="#F0F0F0"/>
<path d="M208.965 104.585C208.828 104.574 208.694 104.536 208.572 104.475C208.45 104.414 208.342 104.329 208.255 104.227C208.167 104.124 208.102 104.006 208.062 103.879C208.023 103.752 208.011 103.619 208.026 103.487C209.568 90.889 218.173 82.8125 229.235 83.748C238.955 84.565 245.467 91.55 246.485 102.071C246.495 102.203 246.478 102.336 246.435 102.462C246.392 102.588 246.323 102.704 246.232 102.804C246.142 102.904 246.031 102.985 245.908 103.043C245.784 103.102 245.65 103.136 245.513 103.144C245.242 103.156 244.977 103.067 244.774 102.894C244.571 102.722 244.445 102.481 244.424 102.221C243.484 92.7412 237.672 86.461 229.06 85.7375C220.72 85.0328 211.693 90.3277 210.086 103.674C210.075 103.805 210.037 103.932 209.974 104.048C209.912 104.165 209.826 104.268 209.722 104.353C209.618 104.437 209.497 104.501 209.368 104.541C209.238 104.581 209.101 104.596 208.965 104.585Z" fill="#F0F0F0"/>
<path d="M225.586 123.151C224.047 123.032 222.539 122.67 221.122 122.078C220.99 122.023 220.871 121.941 220.773 121.839C220.676 121.737 220.601 121.617 220.554 121.485C220.507 121.354 220.489 121.215 220.501 121.076C220.513 120.938 220.554 120.804 220.623 120.681C220.744 120.467 220.944 120.304 221.183 120.223C221.423 120.142 221.685 120.15 221.919 120.245C223.27 120.803 224.714 121.124 226.183 121.193C232.527 121.542 239.227 117.214 239.888 106.761C240.29 100.319 237.996 95.1175 233.719 92.6291C233.497 92.5002 233.334 92.2963 233.261 92.0574C233.188 91.8186 233.21 91.562 233.324 91.3382C233.388 91.2144 233.478 91.1048 233.589 91.016C233.699 90.9272 233.827 90.8611 233.965 90.822C234.103 90.7828 234.248 90.7713 234.39 90.7882C234.533 90.8051 234.671 90.8501 234.795 90.9203C239.752 93.8016 242.409 99.6516 241.955 106.88C241.307 116.958 234.788 123.669 226.059 123.189L225.586 123.151Z" fill="#F0F0F0"/>
<path d="M216.359 116.933C216.24 117.011 216.105 117.064 215.963 117.089C215.822 117.115 215.676 117.112 215.536 117.081C215.395 117.05 215.263 116.992 215.147 116.909C215.031 116.827 214.934 116.723 214.862 116.603C212.941 113.165 212.097 109.266 212.432 105.377C213.041 95.7286 219.048 89.1614 227.207 89.0492C227.35 89.0464 227.493 89.0722 227.626 89.125C227.759 89.1777 227.879 89.2564 227.978 89.3559C228.078 89.4554 228.156 89.5738 228.206 89.7034C228.256 89.8331 228.277 89.9713 228.269 90.1094C228.253 90.3588 228.14 90.5933 227.953 90.7666C227.766 90.9398 227.518 91.0391 227.258 91.0449C221.206 91.1571 215.128 95.5602 214.506 105.495C214.191 109.006 214.943 112.529 216.67 115.636C216.8 115.852 216.84 116.107 216.782 116.35C216.725 116.593 216.573 116.806 216.359 116.946V116.933Z" fill="#F0F0F0"/>
<path d="M230.524 116.147C230.426 115.925 230.415 115.677 230.492 115.448C230.569 115.218 230.731 115.024 230.946 114.9C233.674 113.322 235.345 110.01 235.371 106.013C235.371 102.813 234.432 100.107 232.656 98.3916C231.967 97.734 231.145 97.219 230.241 96.8779C229.338 96.5369 228.371 96.3771 227.401 96.4083C224.206 96.4083 221.614 98.0985 220.182 101.067C220.072 101.293 219.877 101.47 219.637 101.564C219.397 101.657 219.129 101.66 218.886 101.572C218.751 101.524 218.628 101.449 218.524 101.353C218.42 101.257 218.338 101.141 218.284 101.012C218.229 100.884 218.202 100.746 218.206 100.607C218.209 100.469 218.242 100.332 218.303 100.206C220.079 96.5705 223.403 94.4189 227.375 94.4126C228.619 94.3817 229.857 94.5935 231.014 95.035C232.171 95.4766 233.224 96.1389 234.108 96.9821C236.279 99.0776 237.458 102.289 237.432 106.031C237.393 110.74 235.332 114.694 231.976 116.634C231.849 116.7 231.709 116.741 231.564 116.752C231.42 116.764 231.275 116.746 231.138 116.7C231.001 116.654 230.876 116.582 230.77 116.486C230.665 116.391 230.581 116.276 230.524 116.147Z" fill="#F0F0F0"/>
<path d="M223.059 108.782C222.921 108.836 222.772 108.861 222.623 108.855C222.473 108.848 222.327 108.811 222.194 108.745C222.061 108.68 221.945 108.587 221.852 108.474C221.76 108.361 221.694 108.23 221.66 108.09C221.588 107.821 221.537 107.541 221.491 107.254C220.901 103.512 222.988 100.275 226.338 99.6952C227.118 99.5319 227.927 99.5467 228.7 99.7384C229.473 99.9301 230.189 100.293 230.79 100.799C230.903 100.896 230.991 101.015 231.049 101.149C231.108 101.283 231.133 101.428 231.125 101.573C231.117 101.718 231.075 101.86 231.003 101.987C230.93 102.114 230.829 102.224 230.706 102.308L230.641 102.352C230.447 102.482 230.212 102.544 229.976 102.527C229.74 102.51 229.517 102.415 229.345 102.258C228.981 101.963 228.552 101.753 228.09 101.645C227.627 101.537 227.145 101.533 226.682 101.635C224.129 102.078 223.157 104.635 223.519 106.93C223.558 107.154 223.597 107.372 223.655 107.553C223.718 107.788 223.69 108.037 223.577 108.254C223.464 108.47 223.273 108.64 223.04 108.732L223.059 108.782Z" fill="#F0F0F0"/>
<path d="M226.487 112.624C226.324 112.608 226.167 112.553 226.032 112.463C225.897 112.373 225.788 112.252 225.715 112.11C225.643 111.968 225.609 111.811 225.617 111.653C225.625 111.495 225.675 111.342 225.761 111.208L225.852 111.071C225.945 110.928 226.077 110.812 226.234 110.736C226.39 110.66 226.565 110.627 226.74 110.64C227.065 110.658 227.391 110.64 227.712 110.584C229.941 110.198 230.952 108.202 230.952 106.169C230.945 105.925 231.031 105.686 231.193 105.498C231.355 105.31 231.583 105.185 231.833 105.146C231.977 105.125 232.124 105.133 232.264 105.17C232.404 105.207 232.535 105.272 232.647 105.361C232.76 105.45 232.852 105.56 232.917 105.686C232.982 105.811 233.019 105.948 233.025 106.088C233.084 109.343 231.081 112.031 228.081 112.549C227.556 112.642 227.02 112.668 226.487 112.624Z" fill="#F0F0F0"/>
<path d="M226.947 108.938C226.424 108.895 225.928 108.696 225.528 108.369C225.128 108.041 224.845 107.601 224.718 107.11C224.682 106.972 224.68 106.827 224.713 106.688C224.746 106.549 224.814 106.419 224.909 106.31C225.005 106.201 225.126 106.115 225.263 106.06C225.4 106.006 225.549 105.983 225.697 105.994H225.936C226.118 106.012 226.29 106.081 226.431 106.192C226.573 106.303 226.678 106.451 226.733 106.618C226.756 106.705 226.806 106.783 226.877 106.841C226.948 106.899 227.036 106.934 227.129 106.942C227.628 106.986 227.712 106.318 227.725 106.156C227.755 105.913 227.707 105.668 227.589 105.451C227.41 105.243 227.318 104.979 227.33 104.709C227.346 104.511 227.424 104.322 227.552 104.167C227.681 104.011 227.855 103.896 228.052 103.837C228.249 103.777 228.46 103.775 228.658 103.832C228.856 103.889 229.032 104.001 229.163 104.154C229.669 104.769 229.902 105.551 229.811 106.331C229.643 107.971 228.444 109.062 226.947 108.938Z" fill="#F0F0F0"/>
<path d="M207.455 86.6169C207.32 86.606 207.188 86.5693 207.067 86.509C206.947 86.4488 206.84 86.3661 206.752 86.2658C206.665 86.1655 206.599 86.0495 206.558 85.9246C206.518 85.7997 206.503 85.6683 206.516 85.538L207.3 76.8878L216.288 77.6487C216.423 77.6597 216.555 77.6963 216.676 77.7566C216.796 77.8169 216.904 77.8995 216.991 77.9998C217.078 78.1001 217.144 78.2161 217.185 78.341C217.225 78.4659 217.24 78.5973 217.227 78.7276C217.216 78.8583 217.178 78.9855 217.115 79.102C217.053 79.2184 216.967 79.3219 216.863 79.4065C216.759 79.491 216.638 79.555 216.508 79.5948C216.379 79.6345 216.242 79.6493 216.106 79.6382L209.186 79.0519L208.583 85.7126C208.571 85.8433 208.532 85.9704 208.469 86.0866C208.405 86.2028 208.319 86.3059 208.214 86.3899C208.109 86.4738 207.988 86.5371 207.858 86.5761C207.728 86.6151 207.591 86.6289 207.455 86.6169Z" fill="#F0F0F0"/>
<path d="M250.178 90.2154C250.043 90.2044 249.911 90.1678 249.79 90.1075C249.669 90.0472 249.562 89.9645 249.475 89.8642C249.388 89.7639 249.322 89.648 249.281 89.5231C249.241 89.3982 249.226 89.2668 249.239 89.1365L249.841 82.4758L242.921 81.8957C242.785 81.884 242.653 81.8466 242.532 81.7857C242.411 81.7248 242.304 81.6415 242.217 81.5407C242.13 81.4399 242.064 81.3235 242.023 81.1983C241.983 81.073 241.968 80.9412 241.981 80.8106C241.992 80.6802 242.03 80.5532 242.093 80.4371C242.156 80.3209 242.242 80.2178 242.346 80.1337C242.45 80.0497 242.57 79.9863 242.7 79.9473C242.83 79.9082 242.967 79.8943 243.102 79.9063L252.09 80.6609L251.306 89.3298C251.276 89.5903 251.141 89.8293 250.93 89.995C250.719 90.1607 250.449 90.2399 250.178 90.2154Z" fill="#F0F0F0"/>
<path d="M246.996 136.728L238.009 135.974C237.873 135.962 237.741 135.924 237.62 135.863C237.499 135.803 237.392 135.719 237.305 135.618C237.218 135.518 237.152 135.401 237.111 135.276C237.071 135.151 237.057 135.019 237.069 134.888C237.08 134.758 237.119 134.631 237.181 134.515C237.244 134.399 237.33 134.296 237.434 134.212C237.538 134.127 237.659 134.064 237.788 134.025C237.918 133.986 238.055 133.972 238.19 133.984L245.111 134.564L245.713 127.91C245.725 127.778 245.763 127.651 245.826 127.534C245.889 127.417 245.975 127.313 246.08 127.228C246.185 127.144 246.306 127.08 246.437 127.04C246.567 127.001 246.705 126.987 246.841 126.999C246.976 127.01 247.108 127.047 247.229 127.107C247.35 127.167 247.457 127.25 247.544 127.35C247.631 127.45 247.697 127.566 247.738 127.691C247.778 127.816 247.793 127.948 247.78 128.078L246.996 136.728Z" fill="#F0F0F0"/>
<path d="M211.194 133.697L202.207 132.936L202.991 124.292C203.017 124.029 203.15 123.785 203.361 123.615C203.572 123.445 203.844 123.361 204.118 123.382C204.254 123.394 204.386 123.431 204.507 123.492C204.628 123.553 204.735 123.636 204.822 123.737C204.909 123.838 204.975 123.954 205.015 124.079C205.056 124.205 205.07 124.336 205.058 124.467L204.455 131.115L211.369 131.701C211.505 131.712 211.637 131.749 211.758 131.809C211.879 131.869 211.987 131.952 212.075 132.052C212.163 132.152 212.229 132.268 212.27 132.393C212.312 132.518 212.327 132.65 212.315 132.78C212.292 133.045 212.161 133.29 211.951 133.461C211.741 133.633 211.469 133.718 211.194 133.697Z" fill="#F0F0F0"/>
<path d="M16.4251 114.981C16.2562 114.993 16.0891 114.941 15.9595 114.836C15.8299 114.731 15.7482 114.582 15.7317 114.42L15.2522 109.106L20.7732 108.638C20.942 108.626 21.1091 108.678 21.2387 108.783C21.3683 108.888 21.4501 109.037 21.4665 109.2C21.4774 109.361 21.4227 109.52 21.3138 109.644C21.205 109.767 21.0506 109.845 20.8833 109.861L16.6324 110.222L17.0018 114.314C17.0146 114.475 16.9615 114.635 16.8539 114.76C16.7462 114.884 16.5924 114.964 16.4251 114.981Z" fill="#E0E0E0"/>
<path d="M42.6949 112.767C42.5271 112.779 42.3609 112.728 42.2315 112.625C42.1021 112.521 42.0196 112.373 42.0016 112.212L41.6322 108.115L37.3749 108.476C37.206 108.488 37.0389 108.437 36.9093 108.332C36.7797 108.227 36.698 108.077 36.6815 107.915C36.6688 107.752 36.7228 107.592 36.8318 107.467C36.9408 107.342 37.0962 107.263 37.2647 107.248L42.7857 106.786L43.2717 112.1C43.2844 112.261 43.2314 112.421 43.1237 112.546C43.0161 112.67 42.8623 112.75 42.6949 112.767Z" fill="#E0E0E0"/>
<path d="M45.4166 135.662L39.8891 136.13C39.7203 136.142 39.5532 136.09 39.4236 135.985C39.294 135.88 39.2122 135.731 39.1958 135.568C39.1831 135.406 39.2371 135.245 39.3461 135.12C39.4551 134.996 39.6105 134.917 39.779 134.901L44.0299 134.545L43.6605 130.454C43.6478 130.293 43.7008 130.133 43.8085 130.008C43.9161 129.884 44.0699 129.804 44.2372 129.787C44.4051 129.775 44.5713 129.826 44.7007 129.929C44.8301 130.033 44.9126 130.181 44.9306 130.342L45.4166 135.662Z" fill="#E0E0E0"/>
<path d="M23.3976 137.514L17.8961 137.975L17.4101 132.656C17.3992 132.494 17.4539 132.335 17.5627 132.212C17.6715 132.088 17.8259 132.01 17.9933 131.995C18.16 131.984 18.3246 132.036 18.4526 132.139C18.5806 132.243 18.6621 132.39 18.6801 132.55L19.056 136.647L23.3069 136.285C23.4757 136.273 23.6428 136.325 23.7724 136.43C23.902 136.535 23.9838 136.684 24.0002 136.847C24.0064 136.929 23.9957 137.011 23.9687 137.089C23.9417 137.167 23.899 137.239 23.843 137.301C23.787 137.363 23.7188 137.414 23.6424 137.45C23.5659 137.487 23.4827 137.508 23.3976 137.514Z" fill="#E0E0E0"/>
<path d="M42.2479 26.3399L21.136 28.0861L20.7019 23.3276C20.6702 21.0565 21.5318 18.8579 23.1141 17.1728C24.6963 15.4876 26.8821 14.4406 29.2329 14.2417C31.5838 14.0428 33.9258 14.7068 35.7893 16.1005C37.6527 17.4941 38.8997 19.5144 39.28 21.756L39.5263 24.525L42.5784 24.2693L42.3256 21.5003C42.1835 19.9384 41.7232 18.4188 40.9709 17.0282C40.2186 15.6376 39.189 14.4032 37.9411 13.3955C36.6931 12.3879 35.2511 11.6266 33.6975 11.1553C32.1438 10.684 30.5089 10.5118 28.8861 10.6485C25.6088 10.9248 22.5796 12.4427 20.4651 14.8685C19.4181 16.0696 18.6272 17.4574 18.1374 18.9527C17.6477 20.448 17.4688 22.0215 17.6109 23.5833L18.0451 28.373C16.8429 28.5995 15.7702 29.2457 15.0334 30.1875C14.2965 31.1293 13.9474 32.3 14.0534 33.4746L15.5632 50.0889C15.6171 50.716 15.7991 51.3266 16.0989 51.8858C16.3986 52.445 16.8102 52.9416 17.31 53.3473C17.8097 53.7529 18.3878 54.0596 19.011 54.2496C19.6343 54.4396 20.2904 54.5093 20.9416 54.4546L44.6131 52.4651C45.2646 52.4133 45.8991 52.2381 46.4801 51.9496C47.0611 51.6611 47.5771 51.265 47.9986 50.784C48.4201 50.303 48.7387 49.7466 48.9361 49.1468C49.1336 48.547 49.2059 47.9155 49.1491 47.2887L47.6392 30.6743C47.5814 30.0488 47.396 29.4405 47.0937 28.884C46.7914 28.3276 46.378 27.8339 45.8773 27.4313C45.3765 27.0288 44.7982 26.7251 44.1755 26.5379C43.5527 26.3506 42.8977 26.2833 42.2479 26.3399ZM33.2666 39.1437L33.785 44.8626C33.8199 45.0928 33.8056 45.3274 33.743 45.5521C33.6803 45.7767 33.5707 45.9867 33.4208 46.1692C33.2709 46.3517 33.0839 46.5027 32.8712 46.6132C32.6585 46.7237 32.4246 46.7911 32.1839 46.8116C31.9431 46.832 31.7006 46.8049 31.4711 46.7319C31.2416 46.6589 31.03 46.5416 30.8493 46.3872C30.6685 46.2327 30.5225 46.0444 30.42 45.8338C30.3176 45.6231 30.2609 45.3945 30.2534 45.162L29.735 39.4368C29.2004 39.1208 28.7831 38.6506 28.5423 38.0931C28.3016 37.5355 28.2497 36.9191 28.3942 36.3315C28.5386 35.744 28.872 35.2153 29.3469 34.8207C29.8217 34.4261 30.4138 34.1858 31.0388 34.1339C31.6638 34.082 32.2899 34.2212 32.8279 34.5318C33.3659 34.8423 33.7884 35.3082 34.0352 35.8633C34.2821 36.4184 34.3407 37.0343 34.2027 37.6232C34.0647 38.2122 33.7371 38.7443 33.2666 39.1437Z" fill="#EBEBEB"/>
<path d="M78.4452 35.938L76.3133 32.5765C75.2387 32.7238 74.1478 32.7238 73.0733 32.5765L70.9349 35.9256L70.5266 35.8195C69.1409 35.4682 67.8111 34.9374 66.5738 34.2417L66.2109 34.0421L67.1117 30.3999C67.1291 30.3293 67.161 30.2626 67.2054 30.2039C67.2498 30.1452 67.3059 30.0956 67.3704 30.0578C67.4349 30.0201 67.5065 29.9951 67.5811 29.9843C67.6557 29.9734 67.7318 29.9769 67.805 29.9945C67.9519 30.0286 68.0787 30.1173 68.1577 30.2412C68.2367 30.3652 68.2613 30.5142 68.2262 30.6556L67.5134 33.4933C68.4343 33.9761 69.4051 34.3649 70.41 34.6533L72.4965 31.3728L72.8789 31.4352C74.0893 31.6223 75.3231 31.6223 76.5336 31.4352L76.9094 31.3728L78.996 34.6533C80.0017 34.3672 80.9728 33.9783 81.8925 33.4933L80.9659 29.7513L81.2769 29.533C82.121 28.9471 82.8776 28.2525 83.5255 27.4687C83.6155 27.3558 83.7477 27.281 83.894 27.26C84.0402 27.2391 84.1893 27.2736 84.3096 27.3564C84.3726 27.3985 84.426 27.4525 84.4666 27.5152C84.5072 27.5778 84.5341 27.6477 84.5456 27.7207C84.5571 27.7937 84.553 27.8682 84.5336 27.9396C84.5142 28.011 84.4799 28.0778 84.4327 28.136C83.7959 28.91 83.0625 29.6054 82.2489 30.2066L83.2015 34.0296L82.8321 34.2292C81.5965 34.9238 80.2691 35.4545 78.8858 35.8071L78.4452 35.938ZM65.3426 28.6162C65.1677 28.4229 64.9927 28.2171 64.8242 27.9926L60.852 28.9094L60.6381 28.5601C59.9206 27.3667 59.3694 26.0876 58.9987 24.7558L58.895 24.3629L62.3748 22.3048C62.2217 21.2706 62.2217 20.2207 62.3748 19.1865L58.895 17.1346L58.9987 16.7355C59.3695 15.4056 59.9207 14.1286 60.6381 12.9374L60.852 12.5819L64.8242 13.4987C65.4874 12.6634 66.2632 11.9168 67.1311 11.2784L66.4118 8.38465C66.3767 8.24324 66.4014 8.0942 66.4803 7.97026C66.5593 7.84631 66.6861 7.75759 66.833 7.72357C66.9054 7.70691 66.9804 7.7042 67.0539 7.71559C67.1273 7.72698 67.1977 7.75224 67.2609 7.78993C67.3242 7.82761 67.379 7.87696 67.4224 7.93515C67.4657 7.99334 67.4967 8.0592 67.5134 8.12895L68.4141 11.7337L68.1031 11.9458C67.1048 12.6371 66.2294 13.4796 65.5111 14.4404L65.2843 14.7398L61.3963 13.8479C60.8924 14.7332 60.4883 15.6677 60.191 16.6357L63.593 18.6439L63.5347 19.0056C63.3183 20.1688 63.3183 21.3598 63.5347 22.5231L63.593 22.891L60.191 24.8992C60.4895 25.8648 60.8935 26.7972 61.3963 27.6807L65.2843 26.7889L65.5111 27.0883C65.7125 27.371 65.9288 27.6437 66.1591 27.9053C66.2589 28.0062 66.3146 28.1401 66.3146 28.2795C66.3146 28.4188 66.2589 28.5528 66.1591 28.6537C66.1039 28.7045 66.0384 28.7441 65.9668 28.7699C65.8952 28.7956 65.8189 28.8071 65.7425 28.8036C65.6661 28.8001 65.5913 28.7817 65.5226 28.7495C65.4538 28.7173 65.3926 28.6719 65.3426 28.6162ZM88.5021 28.9218L87.0377 28.5851C86.8908 28.551 86.7639 28.4623 86.685 28.3384C86.606 28.2144 86.5814 28.0654 86.6165 27.924C86.6518 27.7826 86.744 27.6605 86.8728 27.5845C87.0015 27.5085 87.1564 27.4848 87.3033 27.5186L87.9513 27.662C88.452 26.7783 88.8539 25.8459 89.1501 24.8805L85.7481 22.8723L85.8129 22.5044C86.0293 21.3411 86.0293 20.1501 85.8129 18.9869L85.7481 18.6252L89.1501 16.617C88.8551 15.6492 88.4532 14.7146 87.9513 13.8292L84.0633 14.7211L83.843 14.4217C83.123 13.4623 82.2479 12.6201 81.251 11.927L80.94 11.715L81.8666 7.97303C80.9467 7.49002 79.9756 7.10322 78.9701 6.81926L76.8641 10.1247L76.4882 10.0623C75.2777 9.87515 74.044 9.87515 72.8335 10.0623L72.4512 10.1247L70.3841 6.83173L69.9953 6.94399C69.8569 6.98789 69.7061 6.97788 69.5753 6.91609C69.4445 6.85431 69.344 6.74567 69.2954 6.61345C69.2687 6.54513 69.2563 6.47235 69.2592 6.39938C69.262 6.32641 69.2799 6.25473 69.3119 6.18851C69.3439 6.1223 69.3893 6.0629 69.4454 6.01378C69.5016 5.96466 69.5673 5.92683 69.6389 5.90248C69.924 5.81516 70.2156 5.73408 70.5007 5.65924L70.9089 5.55322L73.0473 8.90853C74.1214 8.75483 75.2132 8.75483 76.2873 8.90853L78.4193 5.55322L78.834 5.65924C80.2163 6.01448 81.5434 6.54509 82.7803 7.23711L83.1497 7.44292L82.1971 11.266C83.0663 11.9029 83.8422 12.6497 84.504 13.4862L88.4762 12.5694L88.6901 12.9249C89.4102 14.1149 89.9616 15.3922 90.3295 16.723L90.4397 17.1222L86.9534 19.174C87.1149 20.2076 87.1149 21.2587 86.9534 22.2923L90.4397 24.3504L90.3295 24.7433C89.9616 26.0761 89.4102 27.3555 88.6901 28.5476L88.5021 28.9218ZM74.5183 26.0904C73.1063 26.0366 71.7673 25.4726 70.7681 24.5109C69.7688 23.5493 69.1829 22.2605 69.1269 20.9015C69.0884 19.5649 69.5712 18.2628 70.4803 17.2517C71.3894 16.2405 72.6589 15.5936 74.0388 15.4383C74.1197 15.4286 74.2019 15.4355 74.2799 15.4586C74.3578 15.4817 74.4298 15.5205 74.4911 15.5724C74.5523 15.6242 74.6014 15.688 74.6352 15.7595C74.6689 15.831 74.6865 15.9086 74.6868 15.9871C74.6861 16.1197 74.635 16.2476 74.543 16.3464C74.4511 16.4452 74.3247 16.5082 74.1878 16.5234C73.2276 16.6288 72.3298 17.0347 71.6325 17.6787C70.9352 18.3227 70.4768 19.1693 70.3277 20.0883C70.1787 21.0074 70.3473 21.9481 70.8076 22.766C71.2679 23.5839 71.9944 24.2337 72.8756 24.6157C73.7568 24.9977 74.744 25.0907 75.6854 24.8804C76.6269 24.6701 77.4706 24.1682 78.0869 23.4518C78.7032 22.7353 79.0582 21.8439 79.0971 20.9145C79.1361 19.9851 78.857 19.069 78.3026 18.3071C78.2226 18.1992 78.1875 18.0663 78.2043 17.9346C78.2211 17.803 78.2886 17.6823 78.3933 17.5961C78.4538 17.5444 78.525 17.5057 78.6022 17.4825C78.6794 17.4594 78.7609 17.4522 78.8412 17.4617C78.9215 17.4711 78.9987 17.4969 79.0679 17.5373C79.137 17.5777 79.1965 17.6317 79.2422 17.6959C79.8317 18.5076 80.175 19.461 80.2337 20.4496C80.2924 21.4382 80.0643 22.4231 79.5748 23.2941C79.0854 24.1652 78.3538 24.888 77.462 25.3818C76.5702 25.8756 75.5532 26.121 74.5248 26.0904H74.5183Z" fill="#F0F0F0"/>
<path d="M38.1849 81.5902L36.8047 79.426C36.1065 79.5259 35.3969 79.5259 34.6987 79.426L33.3185 81.5902L33.0528 81.5215C32.1582 81.2944 31.2995 80.9525 30.4997 80.505L30.2664 80.374L30.8496 78.0166C30.8727 77.926 30.9318 77.8478 31.0142 77.7988C31.0966 77.7498 31.1958 77.734 31.2902 77.7546C31.3375 77.7656 31.3821 77.7854 31.4214 77.813C31.4606 77.8406 31.4939 77.8754 31.5192 77.9154C31.5445 77.9554 31.5613 77.9998 31.5687 78.046C31.5761 78.0923 31.574 78.1395 31.5624 78.185L31.1088 80.0185C31.7033 80.332 32.3312 80.5829 32.9815 80.7669L34.3293 78.6527L34.5691 78.6901C35.3522 78.8148 36.1512 78.8148 36.9343 78.6901L37.1741 78.6527L38.5284 80.7669C39.1752 80.579 39.8005 80.3282 40.3946 80.0185L39.7985 77.6112L39.9993 77.4677C40.5441 77.091 41.0325 76.6441 41.4509 76.1394C41.5078 76.0652 41.5929 76.0157 41.6876 76.0017C41.7822 75.9877 41.8788 76.0102 41.9563 76.0645C41.9961 76.0918 42.0299 76.1264 42.0557 76.1663C42.0815 76.2062 42.0988 76.2507 42.1066 76.2971C42.1145 76.3435 42.1126 76.3909 42.1013 76.4366C42.09 76.4823 42.0693 76.5254 42.0405 76.5634C41.6277 77.0637 41.1534 77.514 40.6279 77.9043L41.2759 80.399L41.0361 80.5299C40.2368 80.9785 39.378 81.3204 38.483 81.5465L38.1849 81.5902ZM29.7221 76.8566L29.3851 76.4636L26.7931 77.0499L26.657 76.8254C26.2005 76.0523 25.854 75.2238 25.6267 74.3619L25.5554 74.1062L27.804 72.7778C27.7003 72.1059 27.7003 71.4229 27.804 70.7509L25.5554 69.4225L25.6267 69.1668C25.8616 68.3055 26.2169 67.4789 26.6829 66.7096L26.819 66.4788L29.411 67.1025C29.8278 66.5564 30.3132 66.0621 30.8561 65.6306L30.396 63.7597C30.3845 63.7146 30.3824 63.6678 30.3899 63.6219C30.3974 63.5761 30.4143 63.5321 30.4396 63.4926C30.4649 63.4532 30.4982 63.4189 30.5374 63.392C30.5767 63.365 30.6211 63.3458 30.6681 63.3356C30.7626 63.3149 30.8617 63.3308 30.9442 63.3798C31.0266 63.4288 31.0857 63.507 31.1088 63.5975L31.692 65.9238L31.4846 66.0672C30.8425 66.5106 30.2799 67.052 29.8193 67.67L29.6702 67.8634L27.1689 67.2896C26.8471 67.8614 26.5866 68.4632 26.3913 69.0857L28.5881 70.3829L28.5492 70.6199C28.4824 70.9949 28.4477 71.3746 28.4455 71.755C28.4476 72.1375 28.4823 72.5192 28.5492 72.8963L28.5881 73.1271L26.3913 74.4243C26.5854 75.0492 26.846 75.6532 27.1689 76.2267L29.6702 75.6467L29.8193 75.84C29.9531 76.0247 30.0981 76.2017 30.2534 76.3701C30.3172 76.435 30.3528 76.5209 30.3528 76.6102C30.3528 76.6995 30.3172 76.7855 30.2534 76.8503C30.2199 76.8859 30.1791 76.9144 30.1337 76.9341C30.0882 76.9538 30.039 76.9642 29.9892 76.9648C29.9393 76.9654 29.8898 76.9561 29.8439 76.9375C29.7979 76.9188 29.7565 76.8913 29.7221 76.8566ZM44.6844 77.0499L43.7383 76.8378C43.691 76.8269 43.6465 76.807 43.6072 76.7794C43.5679 76.7519 43.5346 76.7171 43.5093 76.6771C43.4841 76.6371 43.4672 76.5927 43.4598 76.5465C43.4524 76.5002 43.4545 76.453 43.4661 76.4075C43.4768 76.3623 43.4967 76.3195 43.5247 76.2817C43.5528 76.244 43.5883 76.212 43.6294 76.1876C43.6704 76.1632 43.716 76.1469 43.7637 76.1397C43.8113 76.1325 43.86 76.1345 43.9068 76.1456L44.315 76.2391C44.6407 75.6669 44.9014 75.0627 45.0926 74.4367L42.8959 73.1395L42.9348 72.9088C43.0016 72.5317 43.0363 72.15 43.0385 71.7675C43.0363 71.387 43.0016 71.0074 42.9348 70.6324L42.8959 70.3954L45.0926 69.0982C44.9002 68.4747 44.6395 67.8726 44.315 67.3021L41.8137 67.8758L41.6647 67.6825C41.204 67.0644 40.6415 66.523 39.9993 66.0797L39.7985 65.9362L40.3946 63.5289C39.8018 63.2166 39.1762 62.9657 38.5284 62.7805L37.1741 64.8947L36.9343 64.8573C36.1512 64.7326 35.3522 64.7326 34.5691 64.8573L34.3293 64.8947L32.9815 62.7805L32.7288 62.8554C32.6385 62.8832 32.5405 62.8759 32.4558 62.8351C32.371 62.7943 32.3062 62.7232 32.2752 62.6371C32.2577 62.5933 32.2496 62.5466 32.2513 62.4998C32.253 62.453 32.2645 62.4069 32.285 62.3645C32.3056 62.322 32.3348 62.2839 32.371 62.2525C32.4071 62.2211 32.4495 62.1971 32.4955 62.1818L33.0528 62.0196L33.3185 61.9573L34.6987 64.1214C35.3969 64.0216 36.1065 64.0216 36.8047 64.1214L38.1849 61.9573L38.4506 62.0196C39.3449 62.2506 40.2034 62.5945 41.0037 63.0425L41.2435 63.1734L40.5955 65.6681C41.1535 66.0835 41.6543 66.5655 42.0859 67.1025L44.6779 66.4788L44.814 66.7096C45.28 67.4789 45.6353 68.3055 45.8702 69.1668L45.9415 69.4225L43.6929 70.7509C43.7966 71.4229 43.7966 72.1059 43.6929 72.7778L45.9415 74.1062L45.8702 74.3619C45.6342 75.2229 45.279 76.0494 44.814 76.8191L44.6844 77.0499ZM35.6513 75.2226C34.7708 75.1644 33.9433 74.7962 33.3271 74.1881C32.7108 73.5801 32.3489 72.7748 32.3104 71.9262C32.2719 71.0776 32.5596 70.2451 33.1185 69.5876C33.6774 68.9302 34.4683 68.494 35.3402 68.3623C35.3922 68.3571 35.4447 68.3624 35.4945 68.3778C35.5442 68.3932 35.5901 68.4185 35.6291 68.4519C35.6681 68.4854 35.6995 68.5263 35.7211 68.5721C35.7428 68.6179 35.7543 68.6675 35.7549 68.7178C35.7555 68.8043 35.7226 68.8879 35.6628 68.9524C35.6029 69.0169 35.5203 69.0578 35.4309 69.067C34.8844 69.1272 34.3676 69.3383 33.9428 69.6748C33.5181 70.0113 33.2036 70.4589 33.0372 70.9636C32.8709 71.4682 32.8598 72.0085 33.0053 72.5191C33.1508 73.0297 33.4466 73.4889 33.8572 73.8413C34.2678 74.1937 34.7755 74.4243 35.3192 74.5052C35.8629 74.5862 36.4193 74.514 36.9213 74.2974C37.4233 74.0808 37.8494 73.7291 38.1484 73.2846C38.4474 72.8401 38.6063 72.3219 38.6061 71.7924C38.6074 71.2294 38.4262 70.68 38.0877 70.2208C38.0383 70.1499 38.0169 70.0643 38.0276 69.9796C38.0384 69.8949 38.0804 69.8167 38.1461 69.7593C38.1851 69.7255 38.2311 69.7002 38.2812 69.6849C38.3312 69.6696 38.384 69.6647 38.4361 69.6706C38.4882 69.6765 38.5384 69.6931 38.5834 69.7191C38.6284 69.7451 38.667 69.7801 38.6969 69.8217C39.0759 70.3464 39.2962 70.962 39.3334 71.6001C39.3706 72.2382 39.2232 72.8737 38.9076 73.4359C38.592 73.9982 38.1206 74.4652 37.5457 74.785C36.9708 75.1048 36.315 75.2649 35.6513 75.2475V75.2226Z" fill="#E6E6E6"/>
<path d="M130 204.714C199.389 204.714 255.641 201.553 255.641 197.654C255.641 193.755 199.389 190.594 130 190.594C60.6105 190.594 4.35925 193.755 4.35925 197.654C4.35925 201.553 60.6105 204.714 130 204.714Z" fill="#F5F5F5"/>
<path d="M203.516 29.3524H182.417L167.513 193.531H188.612C191.573 193.476 194.411 192.381 196.591 190.45C198.77 188.52 200.141 185.89 200.444 183.054L213.462 39.8237C213.614 38.4892 213.468 37.139 213.034 35.863C212.601 34.587 211.89 33.4146 210.949 32.4238C210.007 31.4331 208.858 30.6467 207.576 30.1171C206.294 29.5875 204.91 29.3268 203.516 29.3524Z" fill="#FF8142"/>
<path d="M199.213 29.3526H127.803C124.842 29.4059 122.003 30.5003 119.822 32.4292C117.641 34.3581 116.269 36.9883 115.964 39.8238L102.946 183.054C102.796 184.388 102.942 185.737 103.375 187.012C103.809 188.286 104.518 189.458 105.458 190.449C106.397 191.44 107.545 192.227 108.824 192.759C110.104 193.29 111.486 193.553 112.88 193.532H184.283C187.24 193.471 190.073 192.372 192.248 190.443C194.424 188.514 195.792 185.886 196.096 183.054L209.114 39.8238C209.265 38.493 209.12 37.1466 208.689 35.8737C208.259 34.6009 207.552 33.4306 206.616 32.4406C205.679 31.4505 204.535 30.6632 203.259 30.1308C201.983 29.5985 200.604 29.3332 199.213 29.3526Z" fill="#FF8142"/>
<path opacity="0.3" d="M199.213 29.3526H127.803C124.842 29.4059 122.003 30.5003 119.822 32.4292C117.641 34.3581 116.269 36.9883 115.964 39.8238L102.946 183.054C102.796 184.388 102.942 185.737 103.375 187.012C103.809 188.286 104.518 189.458 105.458 190.449C106.397 191.44 107.545 192.227 108.824 192.759C110.104 193.29 111.486 193.553 112.88 193.532H184.283C187.24 193.471 190.073 192.372 192.248 190.443C194.424 188.514 195.792 185.886 196.096 183.054L209.114 39.8238C209.265 38.493 209.12 37.1466 208.689 35.8737C208.259 34.6009 207.552 33.4306 206.616 32.4406C205.679 31.4505 204.535 30.6632 203.259 30.1308C201.983 29.5985 200.604 29.3332 199.213 29.3526Z" fill="white"/>
<path opacity="0.4" d="M198.908 32.7078H180.077C179.516 32.7122 178.969 32.8786 178.507 33.1855C178.045 33.4924 177.689 33.9256 177.485 34.4291C176.743 36.2788 175.444 37.8736 173.756 39.01C172.067 40.1463 170.065 40.7727 168.005 40.8092H156.898C154.958 40.8468 153.065 40.2321 151.545 39.071C150.025 37.9098 148.974 36.2749 148.572 34.4478C148.464 33.9535 148.181 33.5108 147.77 33.1965C147.36 32.8821 146.848 32.7159 146.323 32.7265H127.499C125.486 32.7608 123.556 33.5039 122.074 34.8152C120.592 36.1265 119.661 37.9151 119.457 39.8425L106.432 183.073C106.328 183.98 106.426 184.897 106.719 185.765C107.013 186.633 107.495 187.43 108.134 188.104C108.773 188.778 109.554 189.313 110.425 189.674C111.296 190.034 112.236 190.212 113.184 190.195H184.594C186.607 190.159 188.537 189.415 190.019 188.102C191.501 186.79 192.432 185.001 192.636 183.073L205.654 39.8425C205.76 38.9352 205.664 38.0165 205.372 37.1478C205.08 36.2791 204.598 35.4804 203.96 34.8051C203.321 34.1298 202.54 33.5934 201.669 33.2317C200.798 32.87 199.857 32.6914 198.908 32.7078Z" fill="white"/>
<path d="M181.114 110.535H131.14C130.797 110.54 130.456 110.475 130.141 110.344C129.825 110.213 129.543 110.019 129.311 109.775C129.079 109.531 128.904 109.242 128.797 108.928C128.691 108.614 128.654 108.281 128.691 107.953L128.944 105.196C129.018 104.497 129.356 103.849 129.893 103.373C130.43 102.897 131.13 102.627 131.86 102.614H181.84C182.183 102.609 182.524 102.674 182.84 102.804C183.155 102.935 183.438 103.129 183.67 103.374C183.901 103.618 184.076 103.906 184.183 104.221C184.29 104.535 184.326 104.867 184.289 105.196L184.043 107.953C183.967 108.653 183.627 109.303 183.088 109.778C182.548 110.254 181.846 110.523 181.114 110.535Z" fill="white"/>
<path d="M180.039 122.384H130.058C129.715 122.39 129.375 122.325 129.059 122.194C128.744 122.063 128.462 121.869 128.231 121.624C128 121.38 127.825 121.091 127.719 120.777C127.613 120.463 127.578 120.13 127.615 119.802L127.862 117.046C127.937 116.347 128.275 115.699 128.812 115.224C129.349 114.748 130.048 114.478 130.778 114.464H180.758C181.101 114.458 181.442 114.523 181.758 114.654C182.073 114.785 182.356 114.979 182.587 115.223C182.819 115.467 182.994 115.756 183.101 116.07C183.208 116.384 183.244 116.717 183.207 117.046L182.955 119.802C182.879 120.501 182.541 121.148 182.004 121.624C181.467 122.099 180.768 122.37 180.039 122.384Z" fill="white"/>
<path opacity="0.1" d="M165.932 35.3894C165.849 36.1655 165.474 36.8856 164.877 37.4132C164.28 37.9408 163.502 38.2393 162.692 38.252C162.311 38.2586 161.933 38.187 161.583 38.0421C161.233 37.8971 160.919 37.682 160.662 37.4112C160.405 37.1404 160.211 36.82 160.093 36.4714C159.975 36.1228 159.935 35.7539 159.977 35.3894C160.059 34.6133 160.434 33.8932 161.031 33.3656C161.629 32.838 162.406 32.5395 163.217 32.5268C163.597 32.5202 163.976 32.5917 164.325 32.7367C164.675 32.8817 164.989 33.0968 165.246 33.3676C165.503 33.6384 165.697 33.9588 165.815 34.3074C165.933 34.656 165.973 35.0249 165.932 35.3894Z" fill="black"/>
<path opacity="0.1" d="M164.584 35.3894C164.538 35.8131 164.333 36.2061 164.007 36.4944C163.681 36.7827 163.257 36.9464 162.815 36.9548C162.606 36.9587 162.4 36.9197 162.208 36.8405C162.017 36.7613 161.845 36.6437 161.704 36.4955C161.564 36.3474 161.458 36.172 161.394 35.9813C161.329 35.7905 161.308 35.5887 161.331 35.3894C161.375 34.9652 161.58 34.5714 161.906 34.2829C162.232 33.9943 162.657 33.831 163.1 33.824C163.308 33.8211 163.514 33.8607 163.705 33.9403C163.896 34.0198 164.067 34.1374 164.208 34.2854C164.348 34.4333 164.454 34.6082 164.519 34.7986C164.584 34.9889 164.606 35.1902 164.584 35.3894Z" fill="black"/>
<g opacity="0.8">
<path d="M190.115 40.1665C190.003 40.168 189.892 40.1466 189.79 40.1038C189.687 40.061 189.595 39.9977 189.52 39.9182C189.444 39.8386 189.387 39.7445 189.353 39.6422C189.318 39.5399 189.306 39.4316 189.318 39.3246L189.46 37.7904C189.484 37.5637 189.594 37.3533 189.768 37.1992C189.943 37.0451 190.17 36.9581 190.406 36.9547C190.518 36.9533 190.628 36.9745 190.73 37.0169C190.832 37.0594 190.924 37.1221 190.999 37.2009C191.074 37.2798 191.132 37.3731 191.167 37.4747C191.202 37.5762 191.214 37.6838 191.204 37.7904L191.061 39.3246C191.037 39.5519 190.928 39.763 190.754 39.9181C190.579 40.0732 190.352 40.1616 190.115 40.1665Z" fill="white"/>
<path d="M197.087 40.1666C196.975 40.1681 196.865 40.1468 196.762 40.1039C196.659 40.0611 196.567 39.9978 196.492 39.9183C196.417 39.8387 196.36 39.7446 196.325 39.6423C196.29 39.54 196.278 39.4317 196.29 39.3247L196.621 35.7262C196.645 35.4994 196.754 35.2891 196.929 35.135C197.103 34.9809 197.33 34.8939 197.567 34.8904C197.678 34.889 197.788 34.9103 197.891 34.9527C197.993 34.9951 198.084 35.0578 198.16 35.1367C198.235 35.2156 198.292 35.3089 198.327 35.4104C198.362 35.512 198.375 35.6196 198.364 35.7262L198.033 39.3247C198.01 39.552 197.9 39.7631 197.726 39.9182C197.552 40.0733 197.325 40.1617 197.087 40.1666Z" fill="white"/>
<path d="M193.601 40.1665C193.489 40.168 193.378 40.1467 193.276 40.1039C193.173 40.061 193.081 39.9978 193.006 39.9182C192.93 39.8386 192.873 39.7445 192.839 39.6422C192.804 39.5399 192.792 39.4316 192.804 39.3246L193.037 36.7613C193.061 36.533 193.171 36.321 193.347 36.1658C193.523 36.0105 193.751 35.9228 193.99 35.9194C194.102 35.9178 194.212 35.9391 194.315 35.982C194.417 36.0249 194.509 36.0883 194.583 36.168C194.658 36.2477 194.715 36.3418 194.749 36.4442C194.782 36.5465 194.793 36.6546 194.78 36.7613L194.547 39.3246C194.523 39.5519 194.414 39.763 194.24 39.9181C194.066 40.0732 193.838 40.1616 193.601 40.1665Z" fill="white"/>
</g>
<g opacity="0.8">
<path d="M130.415 40.1668H126.034C125.971 40.1681 125.909 40.1564 125.851 40.1324C125.793 40.1084 125.741 40.0728 125.698 40.0279C125.656 39.9829 125.624 39.9298 125.605 39.872C125.586 39.8142 125.58 39.7531 125.587 39.6928L125.788 37.4289C125.802 37.3004 125.865 37.1813 125.964 37.094C126.063 37.0067 126.191 36.9573 126.326 36.9549H130.706C130.769 36.9536 130.832 36.9653 130.89 36.9893C130.948 37.0133 131 37.0489 131.042 37.0939C131.084 37.1388 131.116 37.1919 131.136 37.2497C131.155 37.3076 131.161 37.3686 131.153 37.4289L130.946 39.6928C130.935 39.8213 130.874 39.9411 130.776 40.0288C130.677 40.1165 130.549 40.1657 130.415 40.1668Z" fill="white"/>
<path d="M132.443 39.5494C132.38 39.5506 132.317 39.5388 132.259 39.5149C132.2 39.491 132.148 39.4555 132.105 39.4107C132.062 39.3659 132.03 39.3128 132.01 39.255C131.99 39.1972 131.983 39.136 131.989 39.0754L132.086 38.0401C132.099 37.9111 132.161 37.7912 132.261 37.7036C132.36 37.6161 132.49 37.5671 132.624 37.5661C132.687 37.5648 132.75 37.5765 132.808 37.6005C132.866 37.6245 132.918 37.6601 132.96 37.7051C133.002 37.75 133.034 37.8032 133.054 37.861C133.073 37.9188 133.079 37.9799 133.071 38.0401L132.981 39.0754C132.966 39.2039 132.904 39.323 132.805 39.4103C132.706 39.4976 132.577 39.5471 132.443 39.5494Z" fill="white"/>
</g>
<path d="M172.88 92.405C181.6 84.3711 182.469 71.6257 174.822 63.9375C167.175 56.2493 153.907 56.5295 145.187 64.5635C136.467 72.5974 135.598 85.3428 143.245 93.031C150.892 100.719 164.16 100.439 172.88 92.405Z" fill="white"/>
<path d="M159.108 77.7174C153.613 77.7174 148.967 79.7318 148.572 84.1037L148.131 88.962H168.044L168.485 84.1037C168.88 79.7318 164.61 77.7174 159.108 77.7174Z" fill="#FF8142"/>
<path d="M159.29 75.7154C161.843 75.7154 163.022 73.726 163.242 71.2687C163.463 68.8115 162.653 66.822 160.1 66.822C157.546 66.822 156.374 68.8177 156.147 71.2687C155.92 73.7197 156.736 75.7154 159.29 75.7154Z" fill="#FF8142"/>
<path d="M178.833 106.406C177.479 106.406 176.332 106.905 176.241 107.984L176.131 109.187H181.049L181.16 107.984C181.25 106.905 180.194 106.406 178.833 106.406Z" fill="#FF8142"/>
<path d="M178.879 105.913C179.527 105.913 179.799 105.42 179.857 104.816C179.915 104.211 179.708 103.718 179.079 103.718C178.451 103.718 178.159 104.211 178.101 104.816C178.043 105.42 178.25 105.913 178.879 105.913Z" fill="#FF8142"/>
<path d="M163.696 134.234H144.256C143.729 134.243 143.206 134.144 142.721 133.943C142.237 133.743 141.803 133.445 141.447 133.071C141.092 132.696 140.823 132.253 140.659 131.77C140.496 131.288 140.44 130.778 140.498 130.273C140.613 129.201 141.132 128.206 141.957 127.477C142.782 126.747 143.855 126.333 144.975 126.313H164.415C164.942 126.305 165.465 126.405 165.949 126.605C166.432 126.806 166.866 127.104 167.222 127.478C167.577 127.853 167.846 128.295 168.01 128.777C168.174 129.259 168.23 129.769 168.174 130.273C168.06 131.346 167.541 132.342 166.716 133.072C165.891 133.801 164.816 134.215 163.696 134.234Z" fill="#FF8142"/>
<path d="M161.344 178.401H140.536C139.978 178.416 139.423 178.315 138.909 178.104C138.396 177.894 137.935 177.58 137.559 177.182C137.182 176.785 136.899 176.315 136.729 175.803C136.558 175.291 136.504 174.75 136.571 174.217L137.899 159.611C138.018 158.477 138.564 157.426 139.435 156.654C140.306 155.883 141.44 155.446 142.623 155.426H163.437C163.993 155.416 164.546 155.521 165.057 155.733C165.568 155.945 166.027 156.26 166.402 156.656C166.777 157.052 167.061 157.52 167.233 158.029C167.406 158.539 167.463 159.078 167.403 159.611L166.074 174.217C165.953 175.35 165.404 176.401 164.533 177.172C163.661 177.943 162.527 178.38 161.344 178.401Z" fill="#FF8142"/>
<g opacity="0.6">
<path d="M154.928 163.296C154.962 162.978 154.926 162.656 154.821 162.351C154.716 162.047 154.545 161.768 154.32 161.532C154.094 161.297 153.819 161.109 153.513 160.984C153.207 160.858 152.877 160.796 152.544 160.802C151.835 160.811 151.154 161.071 150.63 161.53C150.106 161.99 149.775 162.618 149.699 163.296C149.658 163.676 149.716 164.059 149.869 164.411C150.022 164.763 150.264 165.072 150.574 165.311L150.12 170.344C150.098 170.534 150.119 170.727 150.18 170.91C150.242 171.092 150.343 171.26 150.477 171.402C150.612 171.543 150.776 171.656 150.959 171.732C151.142 171.807 151.34 171.844 151.539 171.84C151.962 171.832 152.366 171.675 152.676 171.399C152.987 171.124 153.182 170.748 153.224 170.344L153.684 165.311C154.031 165.082 154.323 164.784 154.538 164.436C154.752 164.088 154.886 163.699 154.928 163.296Z" fill="white"/>
</g>
<path d="M163.618 158.469H160.935L161.583 151.241C161.697 150.238 161.587 149.223 161.261 148.264C160.936 147.304 160.402 146.423 159.695 145.677C158.989 144.932 158.126 144.339 157.163 143.94C156.2 143.54 155.16 143.341 154.112 143.358C151.884 143.4 149.749 144.224 148.109 145.676C146.469 147.128 145.437 149.108 145.209 151.241L144.561 158.469H141.878L142.526 151.241C142.828 148.41 144.196 145.783 146.372 143.856C148.548 141.929 151.382 140.836 154.339 140.782C155.73 140.759 157.111 141.022 158.389 141.552C159.667 142.082 160.813 142.868 161.752 143.857C162.69 144.846 163.399 146.016 163.831 147.289C164.264 148.562 164.41 149.909 164.26 151.241L163.618 158.469Z" fill="#FF8142"/>
<path d="M179.164 117.476L179.248 116.771C179.265 116.608 179.247 116.443 179.193 116.287C179.14 116.131 179.052 115.988 178.937 115.866C178.822 115.745 178.682 115.649 178.526 115.583C178.369 115.518 178.2 115.485 178.03 115.486C177.667 115.494 177.319 115.628 177.052 115.865C176.784 116.101 176.616 116.424 176.578 116.771L176.513 117.463C176.368 117.467 176.23 117.522 176.123 117.617C176.017 117.713 175.951 117.842 175.937 117.981L175.768 119.852C175.76 119.917 175.766 119.984 175.787 120.047C175.808 120.109 175.842 120.167 175.889 120.216C175.935 120.264 175.991 120.303 176.054 120.328C176.118 120.354 176.186 120.366 176.254 120.363H178.924C179.068 120.361 179.207 120.308 179.313 120.213C179.42 120.119 179.486 119.99 179.501 119.852L179.669 117.981C179.675 117.915 179.666 117.848 179.642 117.786C179.619 117.724 179.583 117.667 179.535 117.619C179.487 117.571 179.429 117.534 179.365 117.509C179.301 117.484 179.233 117.473 179.164 117.476ZM177.952 115.817C178.08 115.815 178.208 115.84 178.326 115.889C178.444 115.938 178.55 116.011 178.637 116.102C178.723 116.193 178.789 116.301 178.83 116.419C178.87 116.536 178.885 116.66 178.872 116.784L178.807 117.476H176.798L176.863 116.784C176.892 116.523 177.018 116.281 177.218 116.103C177.418 115.925 177.679 115.823 177.952 115.817Z" fill="#FF8142"/>
<path d="M138.975 118.218L138.042 118.031C138.016 118.026 137.991 118.015 137.97 117.999C137.949 117.984 137.932 117.964 137.92 117.941C137.908 117.918 137.902 117.893 137.902 117.868C137.901 117.842 137.907 117.817 137.919 117.794L138.307 116.908C138.324 116.87 138.325 116.827 138.312 116.788C138.298 116.749 138.271 116.715 138.235 116.694C138.198 116.672 138.155 116.664 138.112 116.67C138.07 116.676 138.031 116.696 138.003 116.727L137.296 117.426C137.279 117.447 137.258 117.463 137.233 117.475C137.208 117.486 137.181 117.492 137.154 117.492C137.126 117.492 137.099 117.486 137.075 117.475C137.05 117.463 137.028 117.447 137.011 117.426L136.435 116.727C136.311 116.578 136.046 116.727 136.091 116.908L136.318 117.794C136.325 117.82 136.326 117.847 136.321 117.873C136.316 117.899 136.306 117.924 136.291 117.946C136.276 117.969 136.256 117.988 136.233 118.002C136.209 118.017 136.183 118.026 136.156 118.031L135.19 118.218C134.983 118.255 134.957 118.536 135.158 118.573L136.091 118.761C136.117 118.765 136.142 118.776 136.163 118.792C136.184 118.807 136.201 118.827 136.212 118.85C136.224 118.874 136.229 118.899 136.228 118.924C136.228 118.95 136.221 118.975 136.208 118.998L135.832 119.889C135.816 119.928 135.814 119.97 135.828 120.009C135.841 120.049 135.868 120.082 135.905 120.104C135.941 120.125 135.985 120.134 136.027 120.128C136.069 120.122 136.108 120.101 136.137 120.07L136.843 119.372C136.861 119.353 136.883 119.338 136.908 119.327C136.932 119.317 136.959 119.312 136.985 119.312C137.012 119.312 137.039 119.317 137.063 119.327C137.088 119.338 137.11 119.353 137.128 119.372L137.705 120.07C137.828 120.22 138.093 120.07 138.042 119.889L137.815 119.004C137.805 118.951 137.818 118.897 137.849 118.852C137.881 118.808 137.929 118.777 137.983 118.767L138.949 118.58C139.15 118.536 139.176 118.255 138.975 118.218Z" fill="#263238"/>
<path d="M145.105 118.218L144.172 118.031C144.146 118.026 144.121 118.015 144.1 117.999C144.079 117.984 144.062 117.964 144.05 117.941C144.038 117.918 144.032 117.893 144.032 117.868C144.032 117.842 144.037 117.817 144.049 117.794L144.437 116.908C144.454 116.87 144.455 116.827 144.442 116.788C144.429 116.749 144.401 116.715 144.365 116.694C144.328 116.672 144.285 116.664 144.242 116.67C144.2 116.676 144.161 116.696 144.133 116.727L143.427 117.426C143.41 117.447 143.388 117.463 143.363 117.475C143.339 117.486 143.311 117.492 143.284 117.492C143.257 117.492 143.229 117.486 143.205 117.475C143.18 117.463 143.158 117.447 143.141 117.426L142.565 116.727C142.442 116.578 142.176 116.727 142.228 116.908L142.455 117.794C142.46 117.82 142.46 117.847 142.455 117.873C142.449 117.9 142.438 117.925 142.423 117.947C142.407 117.969 142.387 117.988 142.363 118.002C142.34 118.017 142.314 118.026 142.286 118.031L141.321 118.218C141.113 118.255 141.087 118.536 141.288 118.573L142.221 118.761C142.247 118.766 142.272 118.776 142.293 118.792C142.314 118.807 142.331 118.827 142.343 118.85C142.355 118.873 142.361 118.898 142.361 118.924C142.362 118.949 142.356 118.974 142.344 118.998L141.956 119.883C141.939 119.921 141.938 119.964 141.951 120.003C141.965 120.042 141.992 120.076 142.028 120.098C142.065 120.119 142.108 120.128 142.151 120.122C142.193 120.115 142.232 120.095 142.26 120.064L142.967 119.365C142.985 119.347 143.007 119.332 143.031 119.321C143.056 119.311 143.082 119.306 143.109 119.306C143.136 119.306 143.162 119.311 143.187 119.321C143.211 119.332 143.233 119.347 143.252 119.365L143.828 120.064C143.951 120.214 144.217 120.064 144.172 119.883L143.945 118.998C143.939 118.972 143.939 118.945 143.944 118.919C143.949 118.893 143.96 118.869 143.975 118.846C143.99 118.824 144.009 118.806 144.032 118.791C144.055 118.776 144.08 118.766 144.107 118.761L145.073 118.573C145.28 118.536 145.306 118.255 145.105 118.218Z" fill="#263238"/>
<path d="M151.235 118.218L150.308 118.031C150.282 118.027 150.256 118.017 150.234 118.002C150.213 117.987 150.195 117.966 150.183 117.943C150.171 117.92 150.165 117.894 150.165 117.868C150.166 117.842 150.172 117.817 150.185 117.794L150.574 116.908C150.599 116.869 150.606 116.821 150.595 116.776C150.583 116.731 150.554 116.692 150.512 116.668C150.471 116.644 150.422 116.637 150.375 116.648C150.328 116.659 150.288 116.688 150.263 116.728L149.563 117.426C149.545 117.447 149.523 117.464 149.498 117.475C149.473 117.487 149.445 117.493 149.417 117.493C149.389 117.493 149.362 117.487 149.337 117.475C149.311 117.464 149.289 117.447 149.271 117.426L148.695 116.728C148.572 116.578 148.306 116.728 148.358 116.908L148.585 117.794C148.59 117.82 148.591 117.846 148.585 117.872C148.58 117.898 148.57 117.923 148.555 117.945C148.54 117.967 148.52 117.986 148.498 118.001C148.475 118.015 148.449 118.026 148.423 118.031L147.457 118.218C147.25 118.255 147.224 118.536 147.425 118.574L148.351 118.761C148.377 118.766 148.402 118.776 148.423 118.792C148.444 118.808 148.461 118.827 148.473 118.85C148.485 118.873 148.491 118.898 148.491 118.924C148.491 118.949 148.486 118.975 148.474 118.998L148.086 119.883C148.061 119.923 148.053 119.971 148.065 120.016C148.076 120.061 148.106 120.099 148.147 120.123C148.188 120.147 148.238 120.155 148.285 120.143C148.331 120.132 148.372 120.104 148.397 120.064L149.096 119.366C149.115 119.347 149.137 119.332 149.161 119.321C149.186 119.311 149.212 119.306 149.239 119.306C149.266 119.306 149.292 119.311 149.317 119.321C149.341 119.332 149.363 119.347 149.382 119.366L149.965 120.064C150.088 120.214 150.354 120.064 150.302 119.883L150.075 118.998C150.065 118.946 150.077 118.892 150.107 118.848C150.137 118.804 150.184 118.773 150.237 118.761L151.202 118.574C151.384 118.536 151.436 118.255 151.235 118.218Z" fill="#263238"/>
<path d="M157.371 118.218L156.438 118.031C156.412 118.026 156.388 118.015 156.367 117.999C156.346 117.984 156.329 117.964 156.317 117.941C156.305 117.918 156.299 117.893 156.298 117.868C156.298 117.842 156.304 117.817 156.315 117.794L156.704 116.908C156.72 116.87 156.722 116.827 156.708 116.788C156.695 116.749 156.668 116.715 156.631 116.694C156.595 116.672 156.551 116.664 156.509 116.67C156.467 116.676 156.428 116.696 156.399 116.727L155.693 117.426C155.676 117.447 155.655 117.463 155.63 117.475C155.605 117.486 155.578 117.492 155.551 117.492C155.523 117.492 155.496 117.486 155.471 117.475C155.447 117.463 155.425 117.447 155.408 117.426L154.831 116.727C154.708 116.578 154.443 116.727 154.488 116.908L154.715 117.794C154.721 117.82 154.722 117.847 154.718 117.873C154.713 117.899 154.703 117.924 154.687 117.946C154.672 117.969 154.652 117.988 154.629 118.002C154.606 118.017 154.58 118.026 154.553 118.031L153.587 118.218C153.38 118.255 153.354 118.536 153.587 118.573L154.52 118.761C154.546 118.765 154.571 118.776 154.592 118.792C154.613 118.807 154.63 118.827 154.641 118.85C154.653 118.874 154.658 118.899 154.657 118.924C154.657 118.95 154.65 118.975 154.637 118.998L154.255 119.883C154.238 119.921 154.237 119.964 154.25 120.003C154.263 120.042 154.291 120.076 154.327 120.098C154.364 120.119 154.407 120.128 154.45 120.122C154.492 120.115 154.531 120.095 154.559 120.064L155.265 119.365C155.284 119.347 155.306 119.332 155.33 119.321C155.355 119.311 155.381 119.306 155.408 119.306C155.435 119.306 155.461 119.311 155.486 119.321C155.51 119.332 155.532 119.347 155.551 119.365L156.127 120.064C156.25 120.214 156.516 120.064 156.464 119.883L156.237 118.998C156.228 118.945 156.24 118.89 156.272 118.846C156.303 118.802 156.351 118.771 156.406 118.761L157.371 118.573C157.546 118.536 157.572 118.255 157.371 118.218Z" fill="#263238"/>
<path d="M163.502 118.218L162.568 118.031C162.542 118.026 162.518 118.015 162.497 117.999C162.476 117.984 162.459 117.964 162.447 117.941C162.435 117.918 162.429 117.893 162.428 117.868C162.428 117.842 162.434 117.817 162.445 117.794L162.834 116.908C162.85 116.87 162.852 116.827 162.838 116.788C162.825 116.749 162.798 116.715 162.761 116.694C162.725 116.672 162.681 116.664 162.639 116.67C162.597 116.676 162.558 116.696 162.53 116.727L161.823 117.426C161.806 117.447 161.785 117.463 161.76 117.475C161.735 117.486 161.708 117.492 161.681 117.492C161.653 117.492 161.626 117.486 161.601 117.475C161.577 117.463 161.555 117.447 161.538 117.426L160.961 116.727C160.838 116.578 160.573 116.727 160.624 116.908L160.851 117.794C160.857 117.82 160.857 117.847 160.851 117.873C160.846 117.9 160.835 117.925 160.819 117.947C160.804 117.969 160.783 117.988 160.76 118.002C160.736 118.017 160.71 118.026 160.683 118.031L159.717 118.218C159.51 118.255 159.484 118.536 159.685 118.573L160.618 118.761C160.644 118.766 160.668 118.776 160.689 118.792C160.71 118.807 160.728 118.827 160.739 118.85C160.751 118.873 160.758 118.898 160.758 118.924C160.758 118.949 160.752 118.974 160.741 118.998L160.352 119.883C160.336 119.921 160.334 119.964 160.348 120.003C160.361 120.042 160.389 120.076 160.425 120.098C160.462 120.119 160.505 120.128 160.547 120.122C160.59 120.115 160.629 120.095 160.657 120.064L161.363 119.365C161.381 119.347 161.403 119.332 161.428 119.321C161.452 119.311 161.479 119.306 161.506 119.306C161.532 119.306 161.559 119.311 161.583 119.321C161.608 119.332 161.63 119.347 161.648 119.365L162.225 120.064C162.348 120.214 162.614 120.064 162.568 119.883L162.342 118.998C162.336 118.972 162.336 118.945 162.341 118.919C162.346 118.893 162.356 118.869 162.371 118.846C162.386 118.824 162.406 118.806 162.428 118.791C162.451 118.776 162.477 118.766 162.504 118.761L163.469 118.573C163.696 118.536 163.696 118.255 163.502 118.218Z" fill="#263238"/>
<path d="M169.632 118.218L168.699 118.031C168.672 118.026 168.648 118.016 168.627 118C168.606 117.984 168.589 117.964 168.578 117.941C168.566 117.918 168.561 117.893 168.561 117.867C168.562 117.841 168.569 117.816 168.582 117.794L168.971 116.908C168.983 116.889 168.991 116.867 168.995 116.844C168.998 116.822 168.997 116.798 168.992 116.776C168.986 116.754 168.976 116.733 168.961 116.714C168.947 116.696 168.93 116.68 168.909 116.668C168.889 116.656 168.866 116.649 168.842 116.645C168.819 116.642 168.795 116.643 168.772 116.648C168.748 116.654 168.727 116.663 168.707 116.677C168.688 116.691 168.672 116.708 168.66 116.728L167.96 117.426C167.942 117.447 167.92 117.464 167.895 117.475C167.869 117.487 167.842 117.493 167.814 117.493C167.786 117.493 167.758 117.487 167.733 117.475C167.708 117.464 167.686 117.447 167.668 117.426L167.091 116.728C166.968 116.578 166.703 116.728 166.755 116.908L166.981 117.794C166.987 117.82 166.987 117.846 166.982 117.872C166.977 117.898 166.967 117.923 166.952 117.945C166.937 117.967 166.917 117.986 166.894 118.001C166.872 118.015 166.846 118.026 166.819 118.031L165.854 118.218C165.646 118.255 165.621 118.536 165.821 118.574L166.748 118.761C166.774 118.766 166.798 118.776 166.819 118.792C166.841 118.808 166.858 118.827 166.869 118.85C166.881 118.873 166.888 118.898 166.888 118.924C166.888 118.949 166.882 118.975 166.871 118.998L166.482 119.883C166.457 119.923 166.45 119.971 166.461 120.016C166.473 120.061 166.503 120.099 166.544 120.123C166.585 120.147 166.635 120.155 166.681 120.143C166.728 120.132 166.768 120.104 166.793 120.064L167.493 119.366C167.511 119.347 167.533 119.332 167.558 119.321C167.583 119.311 167.609 119.306 167.636 119.306C167.663 119.306 167.689 119.311 167.714 119.321C167.738 119.332 167.76 119.347 167.778 119.366L168.355 120.064C168.385 120.097 168.426 120.119 168.471 120.126C168.516 120.134 168.562 120.126 168.602 120.105C168.641 120.084 168.673 120.051 168.69 120.011C168.708 119.97 168.711 119.925 168.699 119.883L168.472 118.998C168.462 118.946 168.473 118.892 168.504 118.848C168.534 118.804 168.58 118.773 168.634 118.761L169.599 118.574C169.807 118.536 169.833 118.255 169.632 118.218Z" fill="#263238"/>
<path d="M154.851 105.302H143.342C142.989 105.308 142.65 105.438 142.39 105.668C142.13 105.897 141.966 106.211 141.93 106.549C141.911 106.708 141.928 106.869 141.98 107.022C142.031 107.174 142.116 107.314 142.228 107.432C142.341 107.55 142.478 107.644 142.631 107.707C142.784 107.77 142.949 107.8 143.115 107.797H154.624C154.977 107.791 155.316 107.661 155.576 107.431C155.836 107.201 156 106.887 156.037 106.549C156.054 106.39 156.036 106.23 155.984 106.078C155.932 105.926 155.848 105.786 155.736 105.669C155.623 105.551 155.487 105.457 155.334 105.394C155.182 105.331 155.017 105.299 154.851 105.302Z" fill="#263238"/>
<path d="M166.541 105.302H159.86C159.507 105.308 159.169 105.438 158.91 105.668C158.651 105.898 158.489 106.212 158.454 106.549C158.435 106.708 158.452 106.869 158.503 107.02C158.554 107.172 158.639 107.312 158.75 107.43C158.862 107.548 158.998 107.642 159.15 107.705C159.303 107.768 159.467 107.799 159.633 107.797H166.288C166.64 107.791 166.978 107.66 167.238 107.43C167.497 107.2 167.659 106.887 167.694 106.549C167.712 106.393 167.696 106.234 167.646 106.084C167.597 105.934 167.515 105.796 167.406 105.678C167.297 105.561 167.164 105.466 167.015 105.402C166.866 105.337 166.704 105.303 166.541 105.302Z" fill="#263238"/>
<path d="M175.36 161.837C171.292 163.328 167.62 165.672 164.61 168.697C162.782 167.331 160.602 166.469 158.305 166.203L158 166.159L157.87 167.631L158.039 167.693C160.559 168.586 162.69 170.275 164.085 172.483L164.305 172.832L164.545 172.458C167.228 168.335 171.016 164.983 175.509 162.754L175.658 162.679L175.742 161.706L175.36 161.837Z" fill="#263238"/>
<path opacity="0.2" d="M117.455 39.0442C116.629 40.432 116.121 41.9736 115.964 43.5657L106.316 149.725H136.176L142.176 127.592L140.2 105.452L146.2 83.318L144.256 61.1842L150.257 39.0442H117.455Z" fill="black"/>
<path d="M141.632 54.9476L147.632 32.8076H72.1207L66.1266 54.9476L68.0966 77.0814L62.1026 99.2152L64.0725 121.355L58.0785 143.489H133.583L139.584 121.355L137.608 99.2152L143.608 77.0814L141.632 54.9476Z" fill="#FF8142"/>
<path opacity="0.7" d="M141.632 54.9476L147.632 32.8076H72.1207L66.1266 54.9476L68.0966 77.0814L62.1026 99.2152L64.0725 121.355L58.0785 143.489H133.583L139.584 121.355L137.608 99.2152L143.608 77.0814L141.632 54.9476Z" fill="white"/>
<path opacity="0.5" d="M141.632 54.9476H66.1267L72.1207 32.8076H147.632L141.632 54.9476Z" fill="white"/>
<path opacity="0.5" d="M137.607 99.2151H62.1025L68.0965 77.0813H143.608L137.607 99.2151Z" fill="white"/>
<path opacity="0.5" d="M133.583 143.489H58.072L64.0725 121.355H139.584L133.583 143.489Z" fill="white"/>
<path opacity="0.2" d="M131.529 64.1965C130.755 64.412 129.951 64.5171 129.145 64.5083C128.051 64.5549 126.963 64.3407 125.976 63.8847C125.797 63.7829 125.594 63.729 125.386 63.7288C125.196 63.7313 125.009 63.7784 124.842 63.866H124.803C124.514 64.0223 124.204 64.1418 123.883 64.2215C123.158 64.4057 122.41 64.4959 121.66 64.4896C121.433 64.4896 121.213 64.4896 121.012 64.4896C120.43 64.4537 119.854 64.3554 119.295 64.1965C119.213 64.1729 119.128 64.1583 119.042 64.1529C118.9 64.1417 118.756 64.159 118.621 64.2037C118.486 64.2484 118.362 64.3196 118.257 64.4127C118.151 64.5058 118.067 64.6189 118.009 64.7449C117.952 64.8708 117.922 65.0068 117.921 65.1445V65.818H88.528C87.988 65.818 87.4532 65.9205 86.9543 66.1196C86.4555 66.3187 86.0023 66.6105 85.6207 66.9783C85.2391 67.3462 84.9366 67.7828 84.7306 68.2632C84.5245 68.7437 84.4188 69.2585 84.4197 69.7783V73.7635C84.418 74.2838 84.523 74.7993 84.7287 75.2804C84.9344 75.7616 85.2367 76.199 85.6184 76.5675C86.0001 76.936 86.4535 77.2283 86.9528 77.4278C87.4521 77.6273 87.9874 77.73 88.528 77.73H121.919H122.14C122.496 78.0169 122.872 78.3037 123.274 78.5969C123.676 78.89 124.246 79.2954 124.771 79.6571C124.95 79.7819 125.165 79.849 125.386 79.849C125.607 79.849 125.823 79.7819 126.002 79.6571C130.201 76.7259 132.897 74.7052 132.897 69.1546V65.1632C132.899 65.0036 132.861 64.8458 132.787 64.7029C132.713 64.56 132.605 64.4362 132.471 64.3417C132.337 64.2472 132.182 64.1847 132.018 64.1595C131.855 64.1342 131.687 64.1469 131.529 64.1965Z" fill="black"/>
<path d="M121.278 63.6289H87.893C85.6205 63.6289 83.7782 65.402 83.7782 67.5892V71.5744C83.7782 73.7616 85.6205 75.5346 87.893 75.5346H121.278C123.55 75.5346 125.393 73.7616 125.393 71.5744V67.5892C125.393 65.402 123.55 63.6289 121.278 63.6289Z" fill="#FF8142"/>
<path d="M128.503 62.313C127.41 62.358 126.322 62.1439 125.334 61.6893C125.159 61.5856 124.957 61.5308 124.751 61.5308C124.545 61.5308 124.343 61.5856 124.168 61.6893C123.179 62.1446 122.088 62.3588 120.993 62.313C120.186 62.3213 119.383 62.2162 118.608 62.0012C118.452 61.9506 118.286 61.9366 118.123 61.9603C117.96 61.984 117.805 62.0447 117.672 62.1373C117.538 62.23 117.429 62.3519 117.354 62.4931C117.279 62.6343 117.24 62.7906 117.241 62.9491V66.9406C117.241 72.4974 119.937 74.5181 124.136 77.4493C124.315 77.5741 124.53 77.6412 124.751 77.6412C124.972 77.6412 125.188 77.5741 125.367 77.4493C129.566 74.5181 132.261 72.4974 132.261 66.9406V62.9491C132.261 62.7904 132.221 62.634 132.145 62.4929C132.07 62.3518 131.96 62.23 131.826 62.1375C131.692 62.045 131.537 61.9844 131.374 61.9607C131.211 61.937 131.044 61.9509 130.888 62.0012C130.113 62.2167 129.31 62.3217 128.503 62.313Z" fill="#FF8142"/>
<path opacity="0.3" d="M128.503 62.313C127.41 62.358 126.322 62.1439 125.334 61.6893C125.159 61.5856 124.957 61.5308 124.751 61.5308C124.545 61.5308 124.343 61.5856 124.168 61.6893C123.179 62.1446 122.088 62.3588 120.993 62.313C120.186 62.3213 119.383 62.2162 118.608 62.0012C118.452 61.9506 118.286 61.9366 118.123 61.9603C117.96 61.984 117.805 62.0447 117.672 62.1373C117.538 62.23 117.429 62.3519 117.354 62.4931C117.279 62.6343 117.24 62.7906 117.241 62.9491V66.9406C117.241 72.4974 119.937 74.5181 124.136 77.4493C124.315 77.5741 124.53 77.6412 124.751 77.6412C124.972 77.6412 125.188 77.5741 125.367 77.4493C129.566 74.5181 132.261 72.4974 132.261 66.9406V62.9491C132.261 62.7904 132.221 62.634 132.145 62.4929C132.07 62.3518 131.96 62.23 131.826 62.1375C131.692 62.045 131.537 61.9844 131.374 61.9607C131.211 61.937 131.044 61.9509 130.888 62.0012C130.113 62.2167 129.31 62.3217 128.503 62.313Z" fill="white"/>
<path opacity="0.2" d="M124.168 61.6769C123.179 62.1322 122.088 62.3464 120.993 62.3006C120.186 62.3084 119.383 62.2033 118.608 61.9887C118.452 61.9382 118.286 61.9242 118.123 61.9479C117.96 61.9716 117.805 62.0322 117.672 62.1249C117.538 62.2175 117.429 62.3395 117.354 62.4807C117.279 62.6218 117.24 62.7782 117.241 62.9367V66.9281C117.241 72.485 119.937 74.5056 124.136 77.4368C124.324 77.5681 124.551 77.6361 124.784 77.6302V61.5147C124.566 61.5106 124.353 61.5669 124.168 61.6769Z" fill="white"/>
<path d="M130.771 65.8554C128.245 66.8079 125.995 68.3334 124.213 70.3021C122.971 69.4204 121.514 68.86 119.982 68.6744H119.781V69.6286L119.891 69.666C121.595 70.2578 123.063 71.3483 124.09 72.7843L124.252 73.0088L124.388 72.7656C125.878 70.1011 128.147 67.9155 130.914 66.4791L131.011 66.4354V65.8118L130.771 65.8554Z" fill="#263238"/>
<path d="M146.297 39.0379H143.433C143.065 39.0445 142.699 38.9754 142.36 38.8352C142.022 38.695 141.718 38.487 141.47 38.2249C141.221 37.9628 141.034 37.6528 140.92 37.3155C140.806 36.9782 140.768 36.6214 140.809 36.2689L141.061 33.5123C141.139 32.7626 141.5 32.0665 142.076 31.556C142.652 31.0455 143.402 30.7563 144.185 30.7432H147.049C147.418 30.7357 147.784 30.8042 148.124 30.944C148.463 31.0838 148.767 31.2917 149.016 31.5539C149.265 31.816 149.453 32.1264 149.568 32.4641C149.682 32.8019 149.72 33.1592 149.68 33.5123L149.427 36.2689C149.34 37.016 148.975 37.7077 148.4 38.2165C147.825 38.7254 147.078 39.0171 146.297 39.0379Z" fill="#FF8142"/>
<path d="M147.49 33.5061L146.867 32.845L145.299 34.2295L143.99 32.845L143.245 33.5061L144.561 34.8906L142.999 36.2751L143.621 36.93L145.183 35.5454L146.498 36.93L147.237 36.2751L145.921 34.8906L147.49 33.5061Z" fill="white"/>
<path d="M82.2877 62.8181C83.9466 64.5581 85.5277 66.3605 87.1024 68.1754C88.677 69.9902 90.1998 71.8425 91.7161 73.701C91.7809 73.7821 91.755 73.7509 91.768 73.7759C91.7809 73.8008 91.768 73.807 91.768 73.8133C91.7793 73.8364 91.7946 73.8575 91.8133 73.8756C91.8686 73.9512 91.9388 74.0154 92.02 74.0647C92.1012 74.1139 92.1917 74.1472 92.2864 74.1625C92.3595 74.172 92.4336 74.172 92.5067 74.1625C92.5455 74.1655 92.5845 74.1655 92.6233 74.1625H92.6817C92.7141 74.1625 92.6817 74.1625 92.7853 74.1251L94.4053 73.2769C96.5826 72.1668 98.7793 71.0816 101.047 70.1087L102.946 72.3726C101.119 73.9879 99.2135 76.0148 97.2889 77.4991L95.8374 78.5968C95.7472 78.6676 95.652 78.7322 95.5523 78.7901C95.4423 78.8654 95.3276 78.9341 95.2089 78.9959C94.9743 79.1259 94.7319 79.2426 94.4831 79.3452C93.981 79.5482 93.454 79.6886 92.9149 79.763C91.8247 79.9171 90.7119 79.81 89.6749 79.4512C89.1475 79.2709 88.6465 79.0257 88.1845 78.7215C87.9513 78.5718 87.7309 78.3972 87.5365 78.2288C87.4264 78.1415 87.3357 78.0417 87.232 77.9482L86.9728 77.6987C85.2556 76.0023 83.5643 74.2935 81.9054 72.5535C80.2465 70.8135 78.6071 69.061 77.0389 67.2399L82.2877 62.8181Z" fill="#B55B52"/>
<path d="M100.192 71.4808L101.702 66.8096L105.681 68.718C105.681 68.718 105.097 72.1232 102.207 72.7157L100.192 71.4808Z" fill="#B55B52"/>
<path d="M103.289 65.5184L106.879 66.4664L105.674 68.7178L101.695 66.8094L103.289 65.5184Z" fill="#B55B52"/>
<path d="M61.3703 64.0902C60.9427 66.0735 60.4113 68.038 59.8605 69.9963C59.3097 71.9546 58.7071 73.8942 58.0785 75.8338L57.8452 76.5635L57.7286 76.9252C57.7129 76.9773 57.6912 77.0275 57.6638 77.0749C57.5899 77.2755 57.5484 77.4858 57.5407 77.6985C57.527 78.1517 57.6582 78.598 57.9165 78.977C58.044 79.1433 58.1848 79.2997 58.3377 79.4448L58.8756 80.0123L59.9383 81.1536C60.6316 81.927 61.3315 82.7003 61.9924 83.5111L59.7309 86.0057C58.7978 85.4943 57.9036 84.9393 57.0093 84.3904L55.6809 83.5423L55.0329 83.1119C54.8126 82.9622 54.6312 82.8625 54.2748 82.5818C53.0069 81.5419 52.132 80.1276 51.7864 78.5592C51.6125 77.7597 51.571 76.9389 51.6633 76.1269C51.6633 75.9273 51.7281 75.7028 51.7605 75.5032L51.8318 75.129L51.9679 74.3807C52.3308 72.3787 52.7196 70.383 53.1537 68.3997C53.5879 66.4165 54.0544 64.4395 54.6052 62.4874L61.3703 64.0902Z" fill="#B55B52"/>
<path d="M59.7762 83.3117L62.446 81.9957L63.6254 86.3614C63.6254 86.3614 61.4805 87.1534 59.8216 86.1368L59.7762 83.3117Z" fill="#B55B52"/>
<path d="M66.1396 80.5924L66.2627 84.6088L63.2755 86.486L62.2386 82.0767L66.1396 80.5924Z" fill="#B55B52"/>
<path d="M74.8811 43.4721C74.9459 43.7777 75.1727 43.996 75.3801 43.9586C75.5874 43.9211 75.7105 43.6343 75.6457 43.3349C75.5809 43.0355 75.3541 42.811 75.1468 42.8484C74.9394 42.8859 74.8163 43.179 74.8811 43.4721Z" fill="#263238"/>
<path d="M75.1403 44.0022C75.7236 44.872 76.4278 45.661 77.2333 46.3472C77.0458 46.5416 76.8164 46.6942 76.5612 46.7944C76.306 46.8946 76.0312 46.9399 75.7559 46.9272L75.1403 44.0022Z" fill="#A02724"/>
<path d="M73.3454 41.9877C73.3081 41.9873 73.2717 41.9765 73.2405 41.9567C73.2094 41.9369 73.1848 41.9089 73.1698 41.876C73.1547 41.8431 73.1499 41.8068 73.1557 41.7713C73.1616 41.7358 73.1779 41.7027 73.2028 41.6759C73.4057 41.455 73.66 41.2833 73.9449 41.1749C74.2298 41.0666 74.5373 41.0245 74.8423 41.0522C74.8674 41.0567 74.8913 41.066 74.9127 41.0794C74.9341 41.0928 74.9526 41.1101 74.967 41.1304C74.9815 41.1506 74.9916 41.1734 74.9969 41.1975C75.0022 41.2215 75.0025 41.2464 74.9978 41.2705C74.9939 41.2944 74.985 41.3173 74.9718 41.3379C74.9585 41.3585 74.9411 41.3762 74.9205 41.3902C74.9 41.4042 74.8767 41.414 74.8522 41.4192C74.8276 41.4243 74.8022 41.4247 74.7775 41.4202C74.5358 41.3979 74.292 41.4315 74.0666 41.5183C73.8411 41.6051 73.6405 41.7425 73.4815 41.9191C73.4469 41.9579 73.3982 41.9825 73.3454 41.9877Z" fill="#263238"/>
<path d="M65.5369 47.819C66.2497 50.6816 66.969 55.9266 64.4159 57.8287C64.4159 57.8287 65.4138 60.735 72.1919 60.735C79.6439 60.735 75.7559 58.864 75.7559 58.864C71.6865 58.1032 71.7901 54.7042 72.5159 52.4777L65.5369 47.819Z" fill="#B55B52"/>
<path d="M63.6188 58.3588C63.1782 57.5667 62.6857 56.6562 63.6966 56.3693C64.8111 56.0575 71.9586 55.4775 74.0646 56.0637C73.4166 57.1676 74.5117 58.5584 74.5117 58.5584L63.6188 58.3588Z" fill="#263238"/>
<path d="M69.5416 192.184H74.2137L74.6803 183.129H70.0017L69.5416 192.184Z" fill="#B55B52"/>
<path d="M39.8696 190.937L44.6065 191.18L47.4836 182.256L42.7467 182.012L39.8696 190.937Z" fill="#B55B52"/>
<path d="M44.464 190.818L39.9993 189.889C39.9211 189.872 39.8391 189.881 39.7672 189.915C39.6952 189.949 39.6376 190.006 39.604 190.076L38.0553 193.313C38.0171 193.392 37.9982 193.478 38 193.564C38.0018 193.651 38.0242 193.736 38.0654 193.813C38.1067 193.89 38.1658 193.957 38.2382 194.009C38.3106 194.061 38.3943 194.096 38.4829 194.111C40.0446 194.411 40.8222 194.479 42.7857 194.891C43.9909 195.14 46.719 195.783 48.3844 196.138C50.0497 196.494 50.6265 194.947 49.9785 194.66C47.0625 193.382 45.8442 192.253 45.0537 191.199C44.9118 191.007 44.7021 190.872 44.464 190.818Z" fill="#263238"/>
<path d="M73.9674 191.729H69.5286C69.4484 191.73 69.3708 191.757 69.3085 191.806C69.2461 191.854 69.2027 191.922 69.1852 191.997L68.3817 195.471C68.3609 195.555 68.3604 195.643 68.3802 195.727C68.4 195.811 68.4395 195.89 68.4957 195.958C68.552 196.025 68.6235 196.079 68.7048 196.116C68.7861 196.152 68.8751 196.171 68.9649 196.169C70.5654 196.169 72.8529 196.051 74.8941 196.051C77.2463 196.051 79.2745 196.176 82.0221 196.176C83.6874 196.176 84.154 194.554 83.4541 194.405C80.2725 193.737 77.6805 193.662 74.9329 192.035C74.6458 191.85 74.3121 191.745 73.9674 191.729Z" fill="#263238"/>
<path d="M55.9466 59.1509C52.4214 60.7662 51.4624 70.5577 51.4624 70.5577L60.191 74.4369C61.6664 72.0418 62.4702 69.319 62.5238 66.5351C62.6987 61.4772 59.5559 57.5232 55.9466 59.1509Z" fill="#263238"/>
<path opacity="0.4" d="M60.664 65.188C59.0893 67.5454 59.2384 71.1876 59.7827 74.2623L60.1715 74.4369C61.6455 72.0412 62.4492 69.3188 62.5043 66.5351C62.5043 66.2357 62.5043 65.9114 62.5043 65.6433L60.664 65.188Z" fill="black"/>
<path d="M80.3048 58.9139C80.3048 58.9139 84.6334 63.6164 80.5446 92.7164H58.8171C58.6681 89.5046 60.7611 73.8444 57.5211 58.7144C59.9225 58.2698 62.351 57.974 64.7917 57.8288C67.8694 57.6603 70.9545 57.6603 74.0322 57.8288C76.1489 58.0351 78.2459 58.3979 80.3048 58.9139Z" fill="#FF8142"/>
<path opacity="0.6" d="M80.3048 58.9139C80.3048 58.9139 84.6334 63.6164 80.5446 92.7164H58.8171C58.6681 89.5046 60.7611 73.8444 57.5211 58.7144C59.9225 58.2698 62.351 57.974 64.7917 57.8288C67.8694 57.6603 70.9545 57.6603 74.0322 57.8288C76.1489 58.0351 78.2459 58.3979 80.3048 58.9139Z" fill="#FAFAFA"/>
<path opacity="0.2" d="M82.2035 67.8073L82.1258 67.7387L77.8036 65.5184C77.363 71.9234 80.3373 75.9398 82.1063 77.6923C82.3281 74.4015 82.3605 71.1015 82.2035 67.8073Z" fill="black"/>
<path opacity="0.2" d="M74.6802 183.129L74.4404 187.8H69.7618L70.0016 183.129H74.6802Z" fill="black"/>
<path opacity="0.2" d="M42.7467 182.019L47.4836 182.256L45.9997 186.858L41.2628 186.615L42.7467 182.019Z" fill="black"/>
<path d="M64.0336 44.9127C65.0769 48.6547 65.4916 50.9061 67.9216 52.4653C71.5375 54.8102 76.0346 52.116 76.1772 48.1433C76.3003 44.5697 74.5766 39.0378 70.397 38.2832C69.4742 38.1075 68.52 38.1624 67.6256 38.4427C66.7312 38.7231 65.9264 39.2194 65.2881 39.8844C64.6498 40.5494 64.1993 41.3609 63.9797 42.2412C63.7601 43.1215 63.7786 44.0413 64.0336 44.9127Z" fill="#B55B52"/>
<path d="M72.8399 92.7164C72.8399 92.7164 68.2261 122.596 65.7119 133.797C62.9255 146.083 48.0604 186.621 48.0604 186.621L40.7833 185.106C40.7833 185.106 50.1081 152.052 52.4473 134.913C53.3545 128.222 54.4496 117.451 55.8364 108.451C57.1777 99.7202 58.8301 92.7227 58.8301 92.7227L72.8399 92.7164Z" fill="#263238"/>
<path d="M49.8035 184.282L48.4427 186.814L40.2649 185.106L40.9518 182.742L49.8035 184.282Z" fill="#FF8142"/>
<path opacity="0.6" d="M49.8035 184.282L48.4427 186.814L40.2649 185.106L40.9518 182.742L49.8035 184.282Z" fill="white"/>
<path opacity="0.6" d="M69.9238 103.362C64.5908 104.366 65.1546 123.507 65.7961 133.348C67.3383 126.388 69.5869 113.004 71.1226 103.5C70.751 103.323 70.328 103.275 69.9238 103.362Z" fill="black"/>
<path d="M80.5446 92.7164C80.5446 92.7164 82.7154 121.954 82.2748 133.878C81.8147 146.283 75.7041 186.889 75.7041 186.889H68.8223C68.8223 186.889 68.5696 146.975 68.265 134.82C67.9281 121.536 66.2627 92.7102 66.2627 92.7102L80.5446 92.7164Z" fill="#263238"/>
<path d="M77.026 184.257C77.0584 184.257 76.6372 187.008 76.6372 187.008H68.265L68.0382 184.551L77.026 184.257Z" fill="#FF8142"/>
<path opacity="0.6" d="M77.026 184.257C77.0584 184.257 76.6372 187.008 76.6372 187.008H68.265L68.0382 184.551L77.026 184.257Z" fill="white"/>
<path d="M77.7711 64.3834C77.7711 72.2291 82.1062 75.4596 82.1062 75.4596L89.1759 68.8364C87.5026 66.1449 85.5972 63.5934 83.48 61.209C79.3911 56.6999 77.7711 59.3442 77.7711 64.3834Z" fill="#263238"/>
<path opacity="0.2" d="M75.905 49.5652C75.7608 49.9584 75.519 50.3117 75.2005 50.5943C74.8819 50.8769 74.4965 51.0803 74.0776 51.1867C73.6169 51.2772 73.1986 51.5079 72.8847 51.8449C72.5708 52.1818 72.3778 52.6071 72.3345 53.0577C73.1735 52.7876 73.9344 52.3305 74.5549 51.7235C75.1754 51.1166 75.638 50.377 75.905 49.5652Z" fill="black"/>
<path d="M74.0776 37.46C75.5291 35.695 73.2935 35.589 73.2935 35.589C73.8767 33.4872 71.2588 34.6161 71.2588 34.6161C69.6906 32.533 68.8029 35.0713 68.8029 35.0713C67.1764 33.3064 66.8589 36.1877 66.8589 36.1877C65.2259 33.9487 64.3965 37.1793 64.3965 37.1793C62.8931 34.8531 61.973 37.8778 61.973 37.8778C58.869 36.8114 60.34 39.9172 60.34 39.9172C57.6962 39.9858 59.8216 41.9628 59.8216 41.9628C56.6464 41.9628 59.4458 43.7153 59.4458 43.7153C56.925 45.3056 60.0938 45.736 60.0938 45.736C58.0396 48.8543 61.5712 47.6818 61.5712 47.6818C60.1391 50.7502 63.3078 49.3969 63.3078 49.3969C63.107 52.353 64.876 51.5485 65.7314 50.9997C65.8934 51.6233 66.2044 52.247 66.7746 52.2969C67.8827 52.4403 68.0706 50.4259 68.0706 50.4259C68.0706 50.4259 69.0945 51.1992 69.9563 50.7814C70.8182 50.3635 70.4942 49.3095 70.4942 49.3095C70.6812 49.4442 70.9086 49.5169 71.1422 49.5169C71.3758 49.5169 71.6031 49.4442 71.7902 49.3095C72.1595 49.0351 72.1595 47.0519 71.693 46.3534L73.3778 45.7297C73.3778 45.7297 74.6284 45.5613 74.0711 43.971C73.7348 43.057 73.7054 42.0644 73.9869 41.1333C75.892 40.2727 74.3238 39.2623 74.3238 39.2623C76.5335 37.8965 74.0776 37.46 74.0776 37.46Z" fill="#263238"/>
<path d="M70.6626 45.0499C70.9264 45.9804 71.5029 46.8006 72.3021 47.3824C73.3583 48.1433 74.1489 47.3824 74.0711 46.2411C74.0063 45.2059 73.3713 43.5656 72.2049 43.2538C71.0385 42.942 70.384 43.9461 70.6626 45.0499Z" fill="#B55B52"/>
</g>
<defs>
<clipPath id="clip0_1233_613">
<rect width="260" height="205" fill="white"/>
</clipPath>
</defs>
</svg>
